<svg id="dna-analysis-SVG" xmlns="http://www.w3.org/2000/svg" viewBox="0 -50 411 411">
    <defs>
        <style>
            #dna-analysis-SVG .a{fill: var(--color-emphasis-shadow);}
            #dna-analysis-SVG .b{fill: var(--color-emphasis);}
            #dna-analysis-SVG .c{fill:#e2d530;}
            #dna-analysis-SVG .d{fill:#c33;}
            #dna-analysis-SVG .e{fill:var(--color-rebilance);}
            #dna-analysis-SVG .f{fill:#c6c;}

            #dna-analysis-SVG g {
                transition-duration: 600ms;
                transition-property: transform filter;
            }

            #dna-analysis-SVG #Bacteria-top, #dna-analysis-SVG #Bacteria-bot {
                transform: scale(0.65) translate(180px, 200px);
            }

            #dna-analysis-SVG #DNA {
                transform: translate(50px, 100px) scale(0.9);
            }
            
            #DNA-Analysis:hover #DNA {
                transform: translate(100px, -180px) scale(1.4) rotate(50deg);
            }
            
            #DNA-Analysis:hover #Bacteria-top, #DNA-Analysis:hover #Bacteria-bot {
                transform: scale(0.50) translate(400px, 300px) rotate(10deg);
            }
        </style>
    </defs>
    <g id="Bacteria-top">
        <path class="a" d="M233.73,161a20,20,0,0,1-.74,8.47,25.2,25.2,0,0,1-4,7.69,30.13,30.13,0,0,1-6.25,6.1,31.69,31.69,0,0,1-7.79,4.09A48.15,48.15,0,0,1,197.84,190,104.58,104.58,0,0,1,180.93,188c-5.5-1-10.87-2.2-16.19-3a74.61,74.61,0,0,0-7.94-.93l-2-.14c-.66,0-1.32,0-2,0-1.32,0-2.65,0-4,.06A74.45,74.45,0,0,0,133,186.15a77.92,77.92,0,0,0-15,5.58,74.51,74.51,0,0,0-25,20c-6.86,8.42-12.26,18.12-18.66,27.27a89.2,89.2,0,0,1-23.57,23.71,85.3,85.3,0,0,1-14.66,8.05,86.51,86.51,0,0,1-15.89,5l-.14-.58a86.5,86.5,0,0,0,29.63-14,82.09,82.09,0,0,0,12.21-10.89,96,96,0,0,0,9.94-13c6-9.15,11.18-19,18.08-28a79,79,0,0,1,25.88-21.83A81.81,81.81,0,0,1,148.53,178c1.43-.13,2.87-.12,4.31-.14.72,0,1.44,0,2.16,0l2.16.1a69.16,69.16,0,0,1,8.55.86c5.61.87,11,2.18,16.39,3.32a103.26,103.26,0,0,0,16,2.53,46.33,46.33,0,0,0,15.64-1.34,29.64,29.64,0,0,0,7.14-3,27.54,27.54,0,0,0,6.1-4.9,22,22,0,0,0,6.2-14.36Z"/>
        <path class="a" d="M221.89,153.26c-3.33,11.56-7,23.12-12.68,34a83.42,83.42,0,0,1-10.15,15.46,82.61,82.61,0,0,1-13.6,12.67c-4.88,3.69-9.87,7-14.56,10.58-2.36,1.76-4.62,3.57-6.77,5.48-1,1-2.12,1.93-3.06,3s-1.89,2.1-2.79,3.18c-.48.52-.84,1.12-1.26,1.67s-.85,1.12-1.19,1.72c-.7,1.2-1.46,2.37-2.05,3.63a46,46,0,0,0-2.9,8c-1.49,5.58-2.25,11.49-3.31,17.48A65.53,65.53,0,0,1,142.24,288a33,33,0,0,1-5.4,7.93,28.93,28.93,0,0,1-7.69,5.81c-5.69,3-11.79,4.2-17.63,5.5-2.94.64-5.84,1.28-8.65,2.09l-4.18,1.39c-1.38.48-2.71,1.12-4.07,1.67-10.78,4.77-20.2,12.37-28.49,20.93s-15.59,18.18-22.79,27.79l-.49-.35C49.68,350.82,56.68,341,64.78,332s17.48-17,28.58-22.39c1.41-.61,2.78-1.32,4.22-1.85l4.35-1.57c2.93-.93,5.89-1.66,8.81-2.37,5.81-1.43,11.61-2.81,16.55-5.57a25.18,25.18,0,0,0,6.5-5.16,28.74,28.74,0,0,0,4.53-7,61.18,61.18,0,0,0,4.51-16.72c.87-5.86,1.46-11.92,2.89-18a53,53,0,0,1,2.95-9c.64-1.49,1.46-2.88,2.23-4.3.38-.72.87-1.35,1.3-2s.87-1.37,1.38-2a69.83,69.83,0,0,1,13.56-13c4.91-3.71,10-7,14.75-10.42a79,79,0,0,0,13.19-11.34,87.13,87.13,0,0,0,10.46-14c6.17-10.07,10.84-21.17,15.79-32.14Z"/>
        <path class="a" d="M251.58,175.62c-9.32,5.76-18.74,11.5-26.35,18.94A47.4,47.4,0,0,0,216,207c-.57,1.14-1,2.33-1.52,3.5s-.81,2.4-1.11,3.63a61.89,61.89,0,0,0-1.26,7.74c-.32,2.68-.61,5.46-1.1,8.31-.25,1.42-.58,2.85-1,4.29a40.51,40.51,0,0,1-1.51,4.25,37.34,37.34,0,0,1-4.61,7.69,45,45,0,0,1-6.16,6.33c-9.06,7.43-20.12,11.4-31,13.64s-21.81,3.41-32.25,6.1a71.1,71.1,0,0,0-7.67,2.4l-1.89.69a15.71,15.71,0,0,0-1.86.75L119.38,278a20,20,0,0,0-1.79.91l-1.77,1c-1.17.64-2.36,1.27-3.47,2L109,284.11l-3.24,2.42c-17.11,13.05-29.24,33-32.13,54.69l-.6-.07.52-4.1c.1-.68.15-1.37.29-2l.41-2c.3-1.34.5-2.72.88-4l1.13-4,.28-1,.36-1,.71-2c.48-1.29.91-2.61,1.52-3.86l1.69-3.79c.62-1.24,1.29-2.45,1.94-3.67l1-1.84,1.1-1.76c.74-1.17,1.44-2.37,2.22-3.52,1.64-2.24,3.19-4.55,5-6.64s3.68-4.16,5.6-6.19c1-1,2-1.9,3-2.85l1.54-1.42c.52-.46,1.08-.87,1.62-1.31l3.29-2.6,3.46-2.37c1.13-.82,2.35-1.5,3.56-2.21L116,276a19.55,19.55,0,0,1,1.85-1l3.78-1.84a17.18,17.18,0,0,1,1.92-.84l2-.78a73.62,73.62,0,0,1,7.94-2.72c10.75-3.08,21.73-4.46,32.21-7a81.07,81.07,0,0,0,15.11-5.07,52.94,52.94,0,0,0,13.09-8.4,38.67,38.67,0,0,0,5.18-5.54,33.19,33.19,0,0,0,3.73-6.44c2-4.48,2.58-9.67,3.38-15.17a67.37,67.37,0,0,1,1.73-8.42c.41-1.42,1-2.79,1.47-4.18s1.21-2.68,1.94-4a49.18,49.18,0,0,1,11.12-13.13,83.07,83.07,0,0,1,14-9.31,161.73,161.73,0,0,1,15-7Z"/>
        <path class="a" d="M221.79,176A69.43,69.43,0,0,0,186,172.84a64.14,64.14,0,0,0-31.53,15.35c-1.13.94-2.16,2-3.23,3s-2.05,2.12-3,3.26-1.88,2.26-2.79,3.41-1.76,2.35-2.53,3.6a73.4,73.4,0,0,0-7.8,15.93c-2.14,5.66-4,11.57-6.34,17.43s-5.2,11.72-9.43,16.75a20.22,20.22,0,0,1-1.64,1.83c-.58.58-1.1,1.22-1.73,1.75a41.21,41.21,0,0,1-3.78,3.1l-2,1.42-2.07,1.25c-1.37.87-2.82,1.53-4.23,2.27A177.84,177.84,0,0,1,86.55,270a87.18,87.18,0,0,0-16.49,7.43A44.05,44.05,0,0,0,66.4,280a20.79,20.79,0,0,0-1.68,1.43c-.54.5-1.13.95-1.64,1.48a44.42,44.42,0,0,0-5.56,7c-3.35,5-6,10.6-9.3,15.93a57.59,57.59,0,0,1-5.49,7.66,42.25,42.25,0,0,1-7,6.37A42.85,42.85,0,0,1,0,326.54L.15,326a42,42,0,0,0,34.48-7.6,41.22,41.22,0,0,0,6.47-6.26,54.54,54.54,0,0,0,5-7.53c3-5.28,5.54-10.94,8.86-16.31a47.78,47.78,0,0,1,5.78-7.6c.54-.6,1.17-1.11,1.74-1.67s1.16-1.13,1.81-1.6a46.18,46.18,0,0,1,3.88-2.82,89.81,89.81,0,0,1,17-8.18A172.69,172.69,0,0,0,102,259.31a40.8,40.8,0,0,0,13.66-10.77c3.61-4.54,6.1-10,8.18-15.61s3.7-11.59,5.72-17.54a76.77,76.77,0,0,1,8.17-17.34,63.79,63.79,0,0,1,5.89-7.68c1.06-1.23,2.22-2.35,3.34-3.5s2.35-2.22,3.6-3.23a65.85,65.85,0,0,1,7.83-5.64,62.36,62.36,0,0,1,8.53-4.47,64.63,64.63,0,0,1,55.1,1.91Z"/>
        <path class="a" d="M362.09,27.1C348,43.82,335.55,58.64,322.88,73q-3.17,3.57-6.35,7.1c-5,5.62-10.18,11.19-15.51,16.79-5.17,5.48-10.54,11-16.17,16.66-5.36,5.37-11,10.86-16.89,16.5-5.24,5-10.73,10.13-16.54,15.45h0c-1,.93-2,1.87-3.08,2.81q-7.64,6.94-16.07,14.38c-5.88,5.2-12.08,10.57-18.62,16.17q-10.2,8.74-21.62,18.28-1.78-2-3.4-4.11a51.75,51.75,0,0,1-7.05-12c-11-26.41.71-59.82,22.63-79.3.49-.45,1-.88,1.49-1.31.77-.67,1.57-1.34,2.33-2q9.24-8,18.19-16.24Q235,74,243.53,65.64c5.58-5.43,11.06-11,16.5-16.58,2.87-3,5.74-6,8.57-9a73.84,73.84,0,0,1,7.93-7.46l.33-.27A82.66,82.66,0,0,1,303.63,18h0a72.14,72.14,0,0,1,27.87-3.27,54.11,54.11,0,0,1,30.36,12.2Z"/>
        <path class="b" d="M266.64,36.14a791.18,791.18,0,0,1-65,62.28c-17.87,15-29.16,39.41-27.72,62.71.09,1.42.22,2.84.4,4.25l7.92-8.72a22.18,22.18,0,0,1-1.08-4.32c-.33-2.57-.06-5,2.34-12.49,1.13-3.52,2.7-8.08,4.83-13.36A86.38,86.38,0,0,1,196,113.92a88.72,88.72,0,0,1,10.79-12.07l1.41-1.23,0,0c.74-.64,1.5-1.29,2.23-1.94q8.87-7.66,17.44-15.58,8.44-7.74,16.62-15.76,8-7.83,15.82-15.91c2.76-2.85,5.51-5.73,8.22-8.64a71.73,71.73,0,0,1,7.61-7.16,4.15,4.15,0,0,0,.32-.27,79.06,79.06,0,0,1,25.68-13.73h0a118.74,118.74,0,0,1,13.32-2.89c9.36-1.48,12-.75,13.42-.25a17.34,17.34,0,0,1,4,2.12l11.49-6.37C317.8,4.79,285.58,15.39,266.64,36.14Z"/>
        <path class="a" d="M192.3,87.27c-3.36,3.2-7.28,6.2-11.83,7.41a.2.2,0,0,1-.25-.14.22.22,0,0,1,.12-.24c4.24-1.79,7.6-4.93,10.51-8.41,1.49-1.73,2.92-3.53,4.39-5.32A65.06,65.06,0,0,1,200,75.35a28.93,28.93,0,0,1,5.85-4.45,15.21,15.21,0,0,1,7.56-2,11.07,11.07,0,0,1,4.07.92,12.49,12.49,0,0,1,3.39,2.21,27.54,27.54,0,0,1,4.6,5.74,1.77,1.77,0,0,1-2.87,2.06h0a32.36,32.36,0,0,0-4.3-4.81,7.93,7.93,0,0,0-5-2.11,12.56,12.56,0,0,0-5.73,1.31,25.26,25.26,0,0,0-5.41,3.51"/>
        <path class="a" d="M333.29,7a16,16,0,0,0-3.14,2.9c-1,1.11-1.93,2.38-3,3.6a18.44,18.44,0,0,1-3.68,3.25,7.86,7.86,0,0,1-4.67,1.37.2.2,0,0,1-.19-.21.21.21,0,0,1,.18-.19,7.53,7.53,0,0,0,3.94-2,16.71,16.71,0,0,0,2.83-3.47c.84-1.26,1.57-2.64,2.49-4a18.58,18.58,0,0,1,3.33-3.84,9.48,9.48,0,0,1,5.21-2.24,8.46,8.46,0,0,1,5.66,1.7,8.31,8.31,0,0,1,2,10.9,1.77,1.77,0,0,1-3.13-1.63l0-.09a5.45,5.45,0,0,0,.31-3.31,4.58,4.58,0,0,0-1.69-2.7"/>
        <path class="a" d="M280.31,17.28a12.93,12.93,0,0,0-2.86,2.55A27.06,27.06,0,0,1,274.07,23a25.37,25.37,0,0,1-3.89,2.41,23.87,23.87,0,0,1-8.61,2.4.19.19,0,0,1-.21-.19.19.19,0,0,1,.14-.2,25,25,0,0,0,7.65-3.72,22.89,22.89,0,0,0,3.17-2.71A23.81,23.81,0,0,0,275,17.79a16.15,16.15,0,0,1,3.28-3.62A6.29,6.29,0,0,1,281.14,13a5.65,5.65,0,0,1,3.24.65,7.36,7.36,0,0,1,3.45,4.63,14.94,14.94,0,0,1,.32,4.85,1.77,1.77,0,0,1-3.53.06h0A18.55,18.55,0,0,0,284,19.4a4.53,4.53,0,0,0-.66-1.34,3,3,0,0,0-.94-.88"/>
        <path class="a" d="M183.53,110.21a10.29,10.29,0,0,1,5.93,0,21.67,21.67,0,0,1,4.83,2,1.77,1.77,0,0,1-1.48,3.2h0a32.67,32.67,0,0,0-4.29-1.43,6.89,6.89,0,0,0-3.71,0,4.85,4.85,0,0,0-2.63,2.16,42,42,0,0,0-2.14,4.17,18.57,18.57,0,0,1-3,4.34,23.14,23.14,0,0,1-4,3.27,46.58,46.58,0,0,1-8.95,4.31.2.2,0,0,1-.26-.12.21.21,0,0,1,.09-.24,53.47,53.47,0,0,0,7.91-5.54,18.13,18.13,0,0,0,5.29-7.31,43.64,43.64,0,0,1,1.85-4.75"/>
    </g>
    <g id="DNA">
        <path class="c" d="M275.83,115.07l.05,0,17.93-8.5a1.47,1.47,0,1,1,1.26,2.65l-17.93,8.5a1.47,1.47,0,0,1-1.31-2.63Z"/>
        <path class="d" d="M255.27,124.83l0,0,17.85-8.46a1.47,1.47,0,0,1,1.26,2.66l-17.85,8.46a1.48,1.48,0,0,1-2-.7A1.47,1.47,0,0,1,255.27,124.83Z"/>
        <path class="e" d="M272.88,108.85l0,0,11.18-5.3a1.47,1.47,0,0,1,2,.7,1.46,1.46,0,0,1-.7,2l-11.18,5.31a1.47,1.47,0,0,1-1.3-2.64Z"/>
        <path class="f" d="M259.07,115.4l.05,0,11.06-5.25a1.47,1.47,0,0,1,1.26,2.66L260.38,118a1.47,1.47,0,0,1-1.31-2.63Z"/>
        <path class="f" d="M267,96.41l0,0,11.18-5.3a1.47,1.47,0,0,1,1.26,2.66L268.28,99A1.47,1.47,0,0,1,267,96.41Z"/>
        <path class="e" d="M253.17,103l.05,0,11.06-5.25a1.47,1.47,0,1,1,1.26,2.66l-11.07,5.24a1.47,1.47,0,0,1-1.3-2.63Z"/>
        <path class="c" d="M264,90.18l.05,0L282,81.66a1.47,1.47,0,0,1,1.26,2.65l-17.94,8.5A1.47,1.47,0,0,1,264,90.18Z"/>
        <path class="d" d="M243.46,99.93l0,0,17.84-8.46a1.47,1.47,0,1,1,1.26,2.65l-17.84,8.46a1.47,1.47,0,0,1-1.31-2.63Z"/>
        <path class="e" d="M261.07,84l.05,0,19.77-9.37a1.47,1.47,0,1,1,1.25,2.65l-19.76,9.37A1.47,1.47,0,0,1,261.07,84Z"/>
        <path class="f" d="M238.69,94.57l0,0,19.7-9.34a1.47,1.47,0,0,1,1.26,2.66L240,97.2a1.47,1.47,0,0,1-1.3-2.63Z"/>
        <path class="c" d="M258.12,77.74l.05,0,17.94-8.5a1.47,1.47,0,1,1,1.25,2.65l-17.93,8.51a1.48,1.48,0,0,1-2-.7A1.46,1.46,0,0,1,258.12,77.74Z"/>
        <path class="d" d="M237.56,87.48l.05,0L255.45,79a1.47,1.47,0,1,1,1.26,2.65l-17.84,8.46a1.47,1.47,0,0,1-1.31-2.63Z"/>
        <path class="f" d="M255.19,71.51l0,0,11.17-5.29a1.47,1.47,0,0,1,1.26,2.65l-11.17,5.3a1.47,1.47,0,0,1-1.3-2.63Z"/>
        <path class="e" d="M241.37,78.06l0,0,11.09-5.25a1.47,1.47,0,1,1,1.26,2.65l-11.09,5.26a1.47,1.47,0,0,1-1.3-2.63Z"/>
        <path class="e" d="M249.27,59.07l0,0,11.18-5.3a1.47,1.47,0,1,1,1.25,2.65l-11.17,5.3a1.47,1.47,0,0,1-1.31-2.63Z"/>
        <path class="f" d="M235.47,65.61l.05,0,11.08-5.26A1.47,1.47,0,1,1,247.86,63l-11.08,5.25a1.47,1.47,0,0,1-1.31-2.63Z"/>
        <path class="c" d="M246.32,52.84l.05,0,17.93-8.5A1.47,1.47,0,1,1,265.56,47l-17.93,8.51a1.47,1.47,0,0,1-1.31-2.64Z"/>
        <path class="d" d="M225.76,62.59l.05,0,17.84-8.46a1.47,1.47,0,1,1,1.26,2.65l-17.84,8.46a1.47,1.47,0,0,1-1.31-2.63Z"/>
        <path class="f" d="M243.37,46.62l0,0,19.76-9.37a1.47,1.47,0,1,1,1.26,2.65l-19.77,9.37a1.47,1.47,0,0,1-1.3-2.63Z"/>
        <path class="e" d="M221,57.23l.05,0,19.67-9.32A1.47,1.47,0,1,1,242,50.54l-19.67,9.33A1.47,1.47,0,0,1,221,57.23Z"/>
        <path class="c" d="M240.42,40.4l.05,0,17.93-8.5a1.47,1.47,0,1,1,1.26,2.65L241.72,43a1.47,1.47,0,0,1-1.3-2.63Z"/>
        <path class="d" d="M219.86,50.14l0,0,17.84-8.46A1.47,1.47,0,1,1,239,44.31l-17.85,8.47a1.47,1.47,0,0,1-1.3-2.64Z"/>
        <path class="e" d="M237.47,34.17l.05,0,11.18-5.3A1.47,1.47,0,1,1,250,31.5l-11.19,5.3a1.46,1.46,0,0,1-2-.69A1.48,1.48,0,0,1,237.47,34.17Z"/>
        <path class="f" d="M223.66,40.72l.05,0,11.09-5.26a1.47,1.47,0,1,1,1.26,2.65L225,43.35a1.47,1.47,0,0,1-1.3-2.63Z"/>
        <path class="f" d="M231.57,21.73l0,0,11.18-5.3a1.47,1.47,0,1,1,1.26,2.66l-11.18,5.3a1.47,1.47,0,0,1-1.3-2.63Z"/>
        <path class="e" d="M217.77,28.27l0,0L228.9,23a1.47,1.47,0,0,1,1.26,2.65L219.07,30.9a1.47,1.47,0,0,1-1.3-2.63Z"/>
        <path class="c" d="M228.62,15.51l0,0L246.6,7a1.47,1.47,0,0,1,1.25,2.65l-17.93,8.51a1.47,1.47,0,0,1-1.3-2.63Z"/>
        <path class="d" d="M208.06,25.25l.05,0L226,16.77a1.47,1.47,0,1,1,1.26,2.65l-17.84,8.46a1.47,1.47,0,0,1-1.31-2.63Z"/>
        <path class="b" d="M202.3,22a14.46,14.46,0,0,0,5.46,6.12,25.11,25.11,0,0,0,10.46,3.28,86,86,0,0,0,11.6.41c-1.89,2.23-3.74,4.5-5.36,6.77-.64.89-1.19,1.7-1.68,2.47-.26.42-.52.85-.79,1.31a25.75,25.75,0,0,0-2.91,6.88,18,18,0,0,0-.37,2,16.12,16.12,0,0,0-.11,1.64,14.24,14.24,0,0,0,.77,4.9A14.81,14.81,0,0,0,220,59.3s0,0,0,0a16.25,16.25,0,0,0,.8,1.46,13.83,13.83,0,0,0,3.3,3.69,16.68,16.68,0,0,0,1.36,1,15.76,15.76,0,0,0,1.77,1,17.85,17.85,0,0,0,2.17.88,29,29,0,0,0,5,1.22l1.52.22c.95.11,1.95.2,3,.27,2.76.18,5.69.18,8.62.13a84.88,84.88,0,0,0-7,9.24,25,25,0,0,0-4.07,10.18,14.57,14.57,0,0,0,6.74,14.23,25.2,25.2,0,0,0,10.46,3.29,86,86,0,0,0,11.61.4c-1.9,2.24-3.75,4.51-5.37,6.77-.61.85-1.17,1.69-1.67,2.47-.28.46-.55.89-.79,1.31a25.75,25.75,0,0,0-2.91,6.88,15.92,15.92,0,0,0-.37,2,13.68,13.68,0,0,0-.11,1.64,14,14,0,0,0,1.4,6.45,1.83,1.83,0,1,0,3.31-1.57,10.48,10.48,0,0,1-1-4.82,11.22,11.22,0,0,1,.08-1.26,13.41,13.41,0,0,1,.29-1.57,22.35,22.35,0,0,1,2.52-5.9c.22-.38.47-.78.73-1.2.46-.73,1-1.5,1.55-2.3,2.12-3,4.74-6,7.29-9a102.5,102.5,0,0,1,14.37.31,21.55,21.55,0,0,1,8.95,2.75,10.69,10.69,0,0,1,4.1,4.59,1.83,1.83,0,0,0,3.31-1.57,14.33,14.33,0,0,0-5.45-6.12A25.2,25.2,0,0,0,285,103a86.16,86.16,0,0,0-11.61-.4c1.9-2.24,3.74-4.5,5.35-6.76.61-.85,1.18-1.69,1.68-2.47.24-.38.5-.8.8-1.32a25.88,25.88,0,0,0,2.91-6.88,19.15,19.15,0,0,0,.37-2,16.21,16.21,0,0,0,.12-1.66,14.32,14.32,0,0,0-.77-4.87,15,15,0,0,0-.64-1.58,14.54,14.54,0,0,0-4.1-5.15,14.3,14.3,0,0,0-1.36-1,17.34,17.34,0,0,0-1.77-1,25.51,25.51,0,0,0-7.17-2.1l-1.52-.22c-.94-.11-1.94-.2-3-.27-2.78-.18-5.7-.19-8.62-.13a85.54,85.54,0,0,0,7-9.24,25,25,0,0,0,4.07-10.18A14.55,14.55,0,0,0,260,31.64a25.15,25.15,0,0,0-10.46-3.29A85.89,85.89,0,0,0,238,28c1.89-2.24,3.73-4.51,5.34-6.76.6-.83,1.17-1.66,1.68-2.47.25-.39.5-.8.8-1.32a26.1,26.1,0,0,0,2.91-6.87,16.46,16.46,0,0,0,.37-2,15.44,15.44,0,0,0,.12-1.67,14.44,14.44,0,0,0-1.09-5.74,1.84,1.84,0,0,0-2.32-1l-.08,0a1.83,1.83,0,0,0-1,2.4,10.54,10.54,0,0,1,.81,4.27,11,11,0,0,1-.1,1.27,11.28,11.28,0,0,1-.28,1.57,22.49,22.49,0,0,1-2.52,5.9c-.27.47-.5.85-.73,1.2-.48.75-1,1.53-1.56,2.31-2.12,3-4.73,6-7.29,9a103.71,103.71,0,0,1-14.35-.31A21.65,21.65,0,0,1,209.72,25a10.73,10.73,0,0,1-4.1-4.56.08.08,0,0,0,0-.05,1.81,1.81,0,0,0-2.26-.92l-.19.08a1.82,1.82,0,0,0-.88,2.37ZM264,69.09c1,.06,1.9.14,2.76.25.47,0,.94.12,1.39.19a22.13,22.13,0,0,1,6.17,1.79,13,13,0,0,1,1.39.77,10.91,10.91,0,0,1,3.51,3.49,9.37,9.37,0,0,1,.59,1.1,8.75,8.75,0,0,1,.48,1.17,10.49,10.49,0,0,1,.57,3.65,9.34,9.34,0,0,1-.09,1.26,11.91,11.91,0,0,1-.29,1.57,22,22,0,0,1-2.51,5.9c-.28.47-.51.85-.73,1.2-.46.73-1,1.51-1.56,2.31-2.12,3-4.73,6-7.29,9a103.82,103.82,0,0,1-14.36-.31,21.45,21.45,0,0,1-8.95-2.75A10.9,10.9,0,0,1,240.06,89a21.68,21.68,0,0,1,3.53-8.67,66.73,66.73,0,0,1,4.36-6c1.44-1.79,3-3.58,4.49-5.34C256.35,68.93,260.35,68.84,264,69.09ZM249.11,32a21.45,21.45,0,0,1,8.95,2.75,10.92,10.92,0,0,1,5.05,10.67,21.64,21.64,0,0,1-3.53,8.67,103.15,103.15,0,0,1-8.85,11.31c-3.93.1-7.95.18-11.59-.05-1-.07-1.9-.15-2.77-.25L235,64.9a25.43,25.43,0,0,1-4.39-1.07,13.61,13.61,0,0,1-1.77-.72,11.86,11.86,0,0,1-1.41-.77,9.61,9.61,0,0,1-1-.74,10.09,10.09,0,0,1-2.46-2.75,9,9,0,0,1-.59-1.08l0,0a11.21,11.21,0,0,1-.47-1.16,10.19,10.19,0,0,1-.57-3.65,11.15,11.15,0,0,1,.09-1.26,13.41,13.41,0,0,1,.29-1.57,22.3,22.3,0,0,1,2.51-5.9c.25-.43.49-.82.73-1.2.45-.71,1-1.46,1.55-2.3,2.14-3,4.75-6.05,7.3-9A100.93,100.93,0,0,1,249.11,32Z"/>
    </g>
    <g id="Bacteria-bot">
        <path class="b" d="M363.55,128.43Q344.48,149,324.26,168.12c-1,1-2.05,1.95-3.09,2.91q-2.76,2.61-5.57,5.19-6.64,6.15-13.43,12.14Q297,193,291.78,197.43c-.66.58-1.33,1.15-2,1.72C272.08,214,247.39,220.93,225.07,217c-14.95-2.6-28.84-10.07-38.84-23.28a57,57,0,0,1-11.89-28.36l7.92-8.72a13.93,13.93,0,0,0,2.55,4.51c9.51,10.61,52.93-14.73,87.8-47.09,36.2-33.57,60.95-51.41,65-70.19,1-4.82,3.63-12.8-.68-19.24a15.75,15.75,0,0,0-4-4.07l11.49-6.37h0a56.15,56.15,0,0,1,18.1,10.54C394.37,51.06,389.58,100,363.55,128.43Z"/>
        <path class="a" d="M276,202.34a8.82,8.82,0,0,1,.72,2.81,10.23,10.23,0,0,1-.25,2.83,12.68,12.68,0,0,1-2.39,4.8,16.43,16.43,0,0,1-1.84,1.89,20,20,0,0,1-2.09,1.48,35.19,35.19,0,0,1-4.34,2.1c-1.45.59-2.87,1.12-4.25,1.7a24.27,24.27,0,0,0-3.92,2,11.2,11.2,0,0,0-5.4,6.6h0a.2.2,0,0,1-.24.14.19.19,0,0,1-.15-.21,9.44,9.44,0,0,1,.42-2.33,11.13,11.13,0,0,1,1-2.18,15.88,15.88,0,0,1,3.15-3.64c2.46-2.13,5.37-3.49,8-4.93a20.29,20.29,0,0,0,6.51-5.05c1.61-2,2.4-4.54,1.78-6.66v-.05a1.75,1.75,0,0,1,.47-1.82A1.79,1.79,0,0,1,276,202.34Z"/>
        <path class="a" d="M267.29,166.85a4.3,4.3,0,0,1,2.7.84,5.46,5.46,0,0,1,2.09,4.49,5.75,5.75,0,0,1-.67,2.39c-1.54,2.82-4.37,3.74-6.5,4.3a18.2,18.2,0,0,0-5.8,2.11,13.32,13.32,0,0,0-4.4,4.46.2.2,0,0,1-.28.07.2.2,0,0,1-.09-.22,13.32,13.32,0,0,1,3.53-5.88,13.93,13.93,0,0,1,2.89-2.13c1.06-.57,2.13-1,3.1-1.43a12.26,12.26,0,0,0,2.51-1.41,5,5,0,0,0,1.48-1.7,1.81,1.81,0,0,0,.12-1.48,1.56,1.56,0,0,0-.35-.6,1.27,1.27,0,0,0-.33-.27l-.7-.41a1.67,1.67,0,0,1,.7-3.13Z"/>
        <path class="a" d="M370.28,115.18a13,13,0,0,1,8.66,3.68,12.94,12.94,0,0,1,3.13,13.47,14.76,14.76,0,0,1-2.28,4.12,28.34,28.34,0,0,1-6.61,5.76c-4.7,3-9.42,5.74-13.77,9a38.58,38.58,0,0,0-11.13,11.73.22.22,0,0,1-.28.07.21.21,0,0,1-.08-.25c2.21-5.13,6.07-9.42,10.23-13.11s8.86-6.78,13.17-10a25.48,25.48,0,0,0,5.48-5.38,10.22,10.22,0,0,0,2-6.49,9.35,9.35,0,0,0-2.62-6.09,10,10,0,0,0-6.07-2.94h0a1.71,1.71,0,0,1-1.42-1A1.79,1.79,0,0,1,370.28,115.18Z"/>
        <path class="a" d="M313,135.17a9.16,9.16,0,0,1,6.26,3.72,8.76,8.76,0,0,1,1.55,3.46,9.39,9.39,0,0,1,0,3.77,9.68,9.68,0,0,1-1.45,3.44,9.08,9.08,0,0,1-2.71,2.57,15.8,15.8,0,0,1-6.4,1.94,53.58,53.58,0,0,0-5.79.8,21.56,21.56,0,0,0-5.31,2,22.63,22.63,0,0,0-4.71,3.34,23.44,23.44,0,0,0-3.74,4.54.2.2,0,0,1-.36-.19,22.46,22.46,0,0,1,7.76-9.39,23.62,23.62,0,0,1,5.63-2.84,55.54,55.54,0,0,1,6-1.4,12.41,12.41,0,0,0,4.87-1.88,5.4,5.4,0,0,0,1.51-1.62,5.69,5.69,0,0,0,.8-2.07,5.34,5.34,0,0,0-.84-4.17,6.2,6.2,0,0,0-3.62-2.51l-.08,0a1.72,1.72,0,0,1-1.28-1.2A1.79,1.79,0,0,1,313,135.17Z"/>
        <path class="a" d="M309.51,96.23a3.26,3.26,0,0,1,1.07-.19,3.48,3.48,0,0,1,1.36.29,4.21,4.21,0,0,1,1.8,1.51,4.11,4.11,0,0,1,.7,2.3,5.23,5.23,0,0,1-.4,2,9.23,9.23,0,0,1-1.84,2.73c-.64.7-1.3,1.37-2,2a25.57,25.57,0,0,1-4.59,3.28,37.73,37.73,0,0,1-5,2.24c-3.35,1.21-6.29,2.45-8.77,4.81a51.46,51.46,0,0,0-6.71,8,.2.2,0,0,1-.28,0,.19.19,0,0,1-.06-.25,46.22,46.22,0,0,1,5.61-9.14,20.59,20.59,0,0,1,4.14-3.74,45.33,45.33,0,0,1,4.79-2.62,32.36,32.36,0,0,0,4.38-2.48,30.68,30.68,0,0,0,3.84-3.06,14.43,14.43,0,0,0,2.91-3.3,1.53,1.53,0,0,0,.15-.54s0-.08,0-.2a1.39,1.39,0,0,0-.13-.21s.17,0,.26-.1a1.78,1.78,0,0,1-2.42-.94A1.91,1.91,0,0,1,309.51,96.23Z"/>
        <path class="a" d="M321.55,163.81a3.26,3.26,0,0,1,1.07-.19,3.66,3.66,0,0,1,1.36.29,4.23,4.23,0,0,1,2.51,3.81,5.48,5.48,0,0,1-.41,2,9.17,9.17,0,0,1-1.84,2.72c-.64.7-1.3,1.37-2,2a26,26,0,0,1-4.59,3.27,36.49,36.49,0,0,1-5,2.24c-3.35,1.21-6.29,2.45-8.77,4.81a51.93,51.93,0,0,0-6.71,8,.2.2,0,0,1-.28,0,.19.19,0,0,1-.06-.25,46.15,46.15,0,0,1,5.61-9.13,20.34,20.34,0,0,1,4.14-3.75,45.21,45.21,0,0,1,4.79-2.61,33.51,33.51,0,0,0,4.38-2.49,31.54,31.54,0,0,0,3.84-3,14.66,14.66,0,0,0,2.91-3.31,1.49,1.49,0,0,0,.15-.53c0-.06,0-.08,0-.2a1.38,1.38,0,0,0-.13-.22s.17,0,.26-.1a1.77,1.77,0,0,1-2.41-.94A1.9,1.9,0,0,1,321.55,163.81Z"/>
        <path class="a" d="M255,153.06c-3.09,2.51-6.3,4.8-9.45,7.17s-6.39,4.59-9.5,7-6.14,4.89-9.05,7.54a93,93,0,0,0-8.28,8.44.2.2,0,0,1-.32-.23,79.44,79.44,0,0,1,7.17-9.61,105,105,0,0,1,8.42-8.59c2.95-2.71,6-5.34,9.16-7.74s6.4-4.7,9.74-6.81a1.77,1.77,0,0,1,2.11,2.84Z"/>
        <path class="a" d="M371.08,64a4.16,4.16,0,0,1,1.95-.84,4.78,4.78,0,0,1,2,.16,5.62,5.62,0,0,1,2.92,2.08,4.64,4.64,0,0,1,.83,1.73,5.66,5.66,0,0,1,.19,1.76,7.7,7.7,0,0,1-.81,3.12,12.12,12.12,0,0,1-3.71,4.21A25.57,25.57,0,0,1,370,78.77c-1.51.71-3,1.32-4.47,2a32.75,32.75,0,0,0-4.21,2,12.6,12.6,0,0,0-6.1,6.69h0a.19.19,0,0,1-.25.12.2.2,0,0,1-.14-.22,11,11,0,0,1,.64-2.41,12.86,12.86,0,0,1,1.23-2.2,18.24,18.24,0,0,1,3.49-3.64c2.64-2.12,5.65-3.53,8.29-5.16a22.57,22.57,0,0,0,3.61-2.65,10.11,10.11,0,0,0,2.48-3.09,3.67,3.67,0,0,0,.42-1.5,2,2,0,0,0-.06-.63,1.24,1.24,0,0,0-.19-.44,1.85,1.85,0,0,0-.88-.74.9.9,0,0,0-.66-.1l-.71.11a1.72,1.72,0,0,1-1.86-.91A1.67,1.67,0,0,1,371.08,64Z"/>
        <path class="a" d="M247.62,195.05a7.39,7.39,0,0,1,.43,2.83,9.36,9.36,0,0,1-.58,2.7,11.51,11.51,0,0,1-3,4.25c-2.61,2.34-5.62,3.21-8.25,4.26a27.19,27.19,0,0,0-3.79,1.72,23.09,23.09,0,0,0-3.46,2.3,25,25,0,0,0-5.67,6.33.2.2,0,0,1-.36-.18,23.93,23.93,0,0,1,4.66-7.61,26.75,26.75,0,0,1,3.38-3.08,31.15,31.15,0,0,1,3.9-2.39,33.06,33.06,0,0,0,6.87-4.27,9.35,9.35,0,0,0,2-2.81,5.17,5.17,0,0,0,.42-3V196a1.74,1.74,0,0,1,.65-1.74A1.79,1.79,0,0,1,247.62,195.05Z"/>
    </g>
</svg>