<svg xmlns="http://www.w3.org/2000/svg"  id="match-and-compare-SVG" viewBox="0 -150 396 396">
<defs>
    <style>
        #match-and-compare-SVG .a{fill: #fefefe;}
        #match-and-compare-SVG .b{fill: #ececec;}
        #match-and-compare-SVG .c{fill: #727272;}
        #match-and-compare-SVG .d{fill: #c33;}
        #match-and-compare-SVG .e{fill: #c6c;}
        #match-and-compare-SVG .f{fill: var(--color-emphasis-inverse, #28b7b2);}
        #match-and-compare-SVG .g{fill: var(--color-emphasis, #f93);}

        #match-and-compare-SVG .report {
            transition-duration: 500ms;
            transition-property: transform filter;
        }
        
        #match-and-compare:hover .report:nth-of-type(4) {
            transform: translate(180px, 0) rotate(3deg) scale(1.1);
        }
        
        #match-and-compare:hover .report:nth-of-type(2) {
            transform: translate(-160px, 0) rotate(-4deg) scale(1.1);
        
        }
        
        #match-and-compare:hover .report:nth-of-type(1), #match-and-compare:hover .report:nth-of-type(3) {
            transform: opacity(0);
            filter: opacity(0);
        }
    </style>
</defs>
<g class="report">
    <rect class="a" x="277.29" y="1" width="118" height="167.68" rx="4"/>
    <path class="b" d="M391.29,2a3,3,0,0,1,3,3V164.68a3,3,0,0,1-3,3h-110a3,3,0,0,1-3-3V5a3,3,0,0,1,3-3h110m0-2h-110a5,5,0,0,0-5,5V164.68a5,5,0,0,0,5,5h110a5,5,0,0,0,5-5V5a5,5,0,0,0-5-5Z"/>
    <path class="c" d="M363.78,133c-2.49,0-3.74-1.92-4.74-3.46S357.32,127,356,127s-2,1-3.06,2.54-2.25,3.46-4.74,3.46-3.73-1.92-4.73-3.46-1.72-2.54-3-2.54-2,1-3.06,2.54-2.24,3.46-4.73,3.46-3.73-1.92-4.73-3.46-1.72-2.54-3.05-2.54-2,1-3.06,2.54-2.24,3.46-4.73,3.46-3.73-1.92-4.73-3.46S310.6,127,309.27,127s-2,1-3,2.54S304,133,301.49,133s-3.74-1.92-4.73-3.46S295,127,293.71,127a1,1,0,0,1,0-2c2.48,0,3.73,1.91,4.72,3.45s1.72,2.55,3.06,2.55,2-1,3.05-2.55,2.24-3.45,4.73-3.45,3.73,1.91,4.73,3.45,1.72,2.55,3.05,2.55,2-1,3.05-2.55,2.25-3.45,4.74-3.45,3.73,1.91,4.73,3.45,1.72,2.55,3.05,2.55,2-1,3.06-2.55,2.24-3.45,4.73-3.45,3.73,1.91,4.73,3.45,1.72,2.55,3.05,2.55,2-1,3.06-2.55S353.5,125,356,125s3.73,1.91,4.73,3.45,1.72,2.55,3.06,2.55a1,1,0,0,1,0,2Z"/>
    <path class="c" d="M378.87,147.17c-2.48,0-3.72-1.91-4.71-3.45s-1.71-2.55-3-2.55-2,1-3,2.55-2.23,3.45-4.71,3.45-3.72-1.91-4.72-3.45-1.7-2.55-3-2.55-2,1-3,2.55-2.23,3.45-4.71,3.45-3.72-1.91-4.71-3.45-1.71-2.55-3-2.55-2,1-3,2.55-2.23,3.45-4.71,3.45-3.72-1.91-4.72-3.45-1.7-2.55-3-2.55-2,1-3,2.55-2.23,3.45-4.71,3.45-3.72-1.91-4.71-3.45-1.71-2.55-3-2.55-2,1-3,2.55-2.23,3.45-4.71,3.45-3.72-1.91-4.71-3.45-1.71-2.55-3-2.55a1,1,0,0,1,0-2c2.48,0,3.71,1.92,4.71,3.46s1.7,2.54,3,2.54,2-1,3-2.54,2.23-3.46,4.71-3.46,3.71,1.92,4.71,3.46,1.7,2.54,3,2.54,2-1,3-2.54,2.24-3.46,4.72-3.46,3.71,1.92,4.71,3.46,1.7,2.54,3,2.54,2-1,3-2.54,2.24-3.46,4.72-3.46,3.71,1.92,4.71,3.46,1.7,2.54,3,2.54,2-1,3-2.54,2.23-3.46,4.71-3.46,3.72,1.92,4.71,3.46,1.71,2.54,3,2.54,2-1,3-2.54,2.23-3.46,4.71-3.46,3.72,1.92,4.72,3.46,1.71,2.54,3,2.54a1,1,0,0,1,0,2Z"/>
    <path class="d" d="M372,66.37a1.26,1.26,0,0,0-1.77,0A5.52,5.52,0,0,1,368,67.71L352.69,52.38A5.38,5.38,0,0,1,354,50.2a1.25,1.25,0,0,0,0-1.77,1.27,1.27,0,0,0-1.77,0,8.2,8.2,0,0,0-2.2,4,13.82,13.82,0,0,0,.23,6.07A44.17,44.17,0,0,0,352,64.07a44.81,44.81,0,0,0-5.53-1.73,13.82,13.82,0,0,0-6.07-.23,8.17,8.17,0,0,0-6.24,6.24,13.8,13.8,0,0,0,.22,6.07A45.6,45.6,0,0,0,336.13,80a44.37,44.37,0,0,0-5.53-1.74,13.76,13.76,0,0,0-6.06-.22,8,8,0,0,0-4,2.2h0a8.14,8.14,0,0,0-2.21,4,13.78,13.78,0,0,0,.23,6.06,44.94,44.94,0,0,0,1.73,5.54,44.28,44.28,0,0,0-5.53-1.73,13.78,13.78,0,0,0-6.06-.23,8.13,8.13,0,0,0-4.05,2.21,1.25,1.25,0,0,0,1.77,1.76,5.38,5.38,0,0,1,2.18-1.34l15.33,15.32a5.55,5.55,0,0,1-1.35,2.19,1.25,1.25,0,0,0,0,1.76,1.23,1.23,0,0,0,1.76,0,8.05,8.05,0,0,0,2.21-4,13.78,13.78,0,0,0-.23-6.06,44.28,44.28,0,0,0-1.73-5.53,44.41,44.41,0,0,0,5.54,1.73,17.15,17.15,0,0,0,3.76.47,10.47,10.47,0,0,0,2.3-.24,8.16,8.16,0,0,0,6.24-6.25,14,14,0,0,0-.22-6.07,45.45,45.45,0,0,0-1.74-5.53A43.9,43.9,0,0,0,346,86a13.78,13.78,0,0,0,6.06.23A8.16,8.16,0,0,0,358.29,80a14,14,0,0,0-.23-6.07,44.27,44.27,0,0,0-1.74-5.53,44.94,44.94,0,0,0,5.54,1.73,13.82,13.82,0,0,0,6.07.23,8.07,8.07,0,0,0,4-2.21A1.25,1.25,0,0,0,372,66.37Zm-9.22,1.36L352.66,57.65a15.18,15.18,0,0,1-.29-2.06L364.8,68A13.72,13.72,0,0,1,362.75,67.73Zm-5.06-1.52-2.55-.95c-.33-.85-.64-1.7-.95-2.55ZM352.13,83.6,336.8,68.26a6.21,6.21,0,0,1,.57-1.19l15.95,16A5.94,5.94,0,0,1,352.13,83.6Zm-5.27,0L336.78,73.54a17.07,17.07,0,0,1-.3-2.06l12.44,12.44A17.07,17.07,0,0,1,346.86,83.62Zm-7.61-2.48c-.32-.85-.64-1.7-.95-2.55l3.5,3.51Q340.53,81.64,339.25,81.14Zm-.11-15.83a5,5,0,0,1,1.19-.57l15.33,15.33a5.44,5.44,0,0,1-.57,1.19Zm4.4-.89a15.18,15.18,0,0,1,2.06.29L355.68,74.8a13.66,13.66,0,0,1,.3,2.06Zm7.12,1.82c.84.3,1.69.62,2.55,1,.32.85.64,1.7,1,2.55ZM336.25,99.48,320.92,84.15a5,5,0,0,1,.57-1.19l15.95,16A5.44,5.44,0,0,1,336.25,99.48Zm-5.27,0L320.89,89.42a15.18,15.18,0,0,1-.29-2.06L333,99.8A13.84,13.84,0,0,1,331,99.5ZM323.37,97c-.32-.85-.64-1.7-.95-2.55l3.5,3.5Zm-.11-15.84a5.44,5.44,0,0,1,1.19-.57L339.78,96a5.94,5.94,0,0,1-.57,1.19Zm4.4-.89a17.07,17.07,0,0,1,2.06.3L339.8,90.68a17.07,17.07,0,0,1,.3,2.06Zm7.12,1.82,2.54,1c.33.84.65,1.69,1,2.54ZM313.83,96.48l10.08,10.08a13.84,13.84,0,0,1,.3,2.06L311.78,96.19A15,15,0,0,1,313.83,96.48ZM318.89,98c.85.31,1.7.62,2.55.95.32.85.64,1.7.95,2.54Z"/>
    <path d="M382.78,39.89c-2.91,0-4.09-3.17-5.14-6-.59-1.6-1.5-4-2.32-4s-1.73,2.43-2.33,4c-1,2.8-2.23,6-5.14,6s-4.09-3.17-5.13-6c-.6-1.6-1.5-4-2.32-4s-1.73,2.43-2.33,4c-1,2.8-2.23,6-5.13,6s-4.09-3.17-5.14-6c-.59-1.6-1.5-4-2.32-4a1.5,1.5,0,0,1,0-3c2.91,0,4.09,3.18,5.13,6,.6,1.6,1.5,4,2.33,4s1.72-2.42,2.32-4c1.05-2.8,2.23-6,5.14-6s4.09,3.18,5.13,6c.6,1.6,1.5,4,2.32,4s1.73-2.42,2.33-4c1-2.8,2.23-6,5.14-6s4.09,3.18,5.13,6c.6,1.6,1.5,4,2.33,4a1.5,1.5,0,0,1,0,3Z"/>
    <path d="M333,39.89c-3.15,0-4.51-3.13-5.7-5.9-.87-2-1.77-4.1-2.95-4.1S322.28,32,321.41,34c-1.2,2.77-2.55,5.9-5.7,5.9s-4.5-3.13-5.7-5.9c-.86-2-1.76-4.1-2.94-4.1S305,32,304.13,34c-1.19,2.77-2.55,5.9-5.7,5.9s-4.5-3.13-5.69-5.9c-.87-2-1.77-4.1-2.94-4.1a1.5,1.5,0,0,1,0-3c3.14,0,4.5,3.14,5.69,5.91.87,2,1.77,4.09,2.94,4.09s2.08-2.08,2.95-4.09c1.19-2.77,2.55-5.91,5.69-5.91s4.5,3.14,5.7,5.91c.87,2,1.77,4.09,2.94,4.09s2.07-2.08,2.94-4.09c1.2-2.77,2.56-5.91,5.7-5.91s4.5,3.14,5.7,5.91c.87,2,1.77,4.09,2.95,4.09a1.5,1.5,0,0,1,0,3Z"/>
</g>
<g class="report">
    <rect class="a" x="254.42" y="35.65" width="118" height="167.68" rx="4"/>
    <path class="b" d="M368.42,36.65a3,3,0,0,1,3,3V199.33a3,3,0,0,1-3,3h-110a3,3,0,0,1-3-3V39.65a3,3,0,0,1,3-3h110m0-2h-110a5,5,0,0,0-5,5V199.33a5,5,0,0,0,5,5h110a5,5,0,0,0,5-5V39.65a5,5,0,0,0-5-5Z"/>
    <path d="M359.91,74.55c-2.66,0-3.61-3.08-4.54-6.06-.4-1.29-1.14-3.68-1.71-3.95-.48.27-1.23,2.66-1.63,3.95-.92,3-1.88,6.06-4.53,6.06s-3.61-3.08-4.54-6.06c-.4-1.29-1.14-3.68-1.71-3.95-.48.27-1.22,2.67-1.62,3.95-.92,3-1.88,6.06-4.53,6.06s-3.61-3.08-4.53-6.06c-.4-1.29-1.15-3.68-1.72-3.95-.48.27-1.22,2.67-1.62,3.95-.92,3-1.87,6.06-4.53,6.06s-3.61-3.08-4.53-6.06c-.4-1.29-1.14-3.68-1.71-3.95-.48.27-1.23,2.66-1.62,3.95-.93,3-1.88,6.06-4.54,6.06s-3.6-3.08-4.53-6.06c-.4-1.29-1.14-3.68-1.71-3.95-.48.27-1.22,2.66-1.61,3.95-.93,3-1.88,6.06-4.53,6.06s-3.61-3.08-4.54-6.06c-.39-1.29-1.14-3.68-1.71-3.95-.48.27-1.22,2.66-1.62,3.95-.92,3-1.87,6.06-4.53,6.06s-3.61-3.08-4.53-6.06c-.4-1.29-1.14-3.68-1.71-3.95-.48.27-1.22,2.66-1.62,3.95-.93,3-1.88,6.06-4.53,6.06s-3.61-3.08-4.54-6.06c-.39-1.29-1.14-3.68-1.71-3.95a1.47,1.47,0,0,1-1.47-1.5,1.51,1.51,0,0,1,1.52-1.49c2.65,0,3.61,3.08,4.53,6,.4,1.29,1.14,3.69,1.71,4,.48-.27,1.22-2.67,1.62-4,.92-3,1.88-6,4.53-6s3.61,3.08,4.53,6c.4,1.29,1.15,3.69,1.72,4,.48-.27,1.22-2.67,1.62-4,.92-3,1.87-6,4.53-6s3.61,3.08,4.53,6c.4,1.29,1.14,3.69,1.71,4,.48-.27,1.22-2.67,1.62-4,.92-3,1.87-6,4.53-6s3.61,3.08,4.53,6c.4,1.29,1.14,3.69,1.71,4,.48-.27,1.22-2.67,1.62-4,.92-3,1.88-6,4.53-6s3.61,3.08,4.53,6c.4,1.29,1.15,3.69,1.72,4,.47-.27,1.22-2.67,1.62-4,.92-3,1.87-6,4.53-6s3.61,3.08,4.53,6c.4,1.29,1.14,3.69,1.71,4,.48-.27,1.22-2.67,1.62-4,.93-3,1.88-6,4.54-6s3.61,3.08,4.53,6c.4,1.29,1.14,3.69,1.71,4,.48-.27,1.23-2.67,1.63-4,.92-3,1.88-6,4.53-6s3.61,3.08,4.54,6c.4,1.29,1.14,3.69,1.71,4a1.47,1.47,0,0,1,1.48,1.49A1.52,1.52,0,0,1,359.91,74.55Z"/>
    <path class="c" d="M340.91,167.68c-2.49,0-3.74-1.91-4.74-3.45s-1.72-2.55-3.05-2.55-2,1-3.06,2.55-2.24,3.45-4.73,3.45-3.74-1.91-4.74-3.45-1.71-2.55-3-2.55-2,1-3.06,2.55-2.24,3.45-4.73,3.45-3.73-1.91-4.73-3.45-1.72-2.55-3-2.55-2,1-3.06,2.55-2.24,3.45-4.73,3.45-3.73-1.91-4.73-3.45-1.72-2.55-3.05-2.55-2,1-3,2.55-2.25,3.45-4.73,3.45-3.73-1.91-4.73-3.45-1.72-2.55-3.05-2.55a1,1,0,0,1,0-2c2.48,0,3.73,1.92,4.73,3.46s1.71,2.54,3.05,2.54,2-1,3.05-2.54,2.24-3.46,4.73-3.46,3.73,1.92,4.73,3.46,1.72,2.54,3.05,2.54,2-1,3.06-2.54,2.24-3.46,4.73-3.46,3.73,1.92,4.73,3.46,1.72,2.54,3.05,2.54,2-1,3.06-2.54,2.24-3.46,4.73-3.46,3.73,1.92,4.73,3.46,1.72,2.54,3.06,2.54,2-1,3.05-2.54,2.25-3.46,4.74-3.46,3.73,1.92,4.73,3.46,1.72,2.54,3.06,2.54a1,1,0,0,1,0,2Z"/>
    <path class="c" d="M356,181.83c-2.48,0-3.72-1.92-4.71-3.46s-1.71-2.54-3-2.54-2,1-3,2.54-2.23,3.46-4.71,3.46-3.72-1.92-4.71-3.46-1.71-2.54-3-2.54-2,1-3,2.54-2.23,3.46-4.71,3.46-3.72-1.92-4.71-3.46-1.71-2.54-3-2.54-2,1-3,2.54-2.23,3.46-4.71,3.46-3.72-1.92-4.71-3.46-1.71-2.54-3-2.54-2,1-3,2.54-2.23,3.46-4.71,3.46-3.72-1.92-4.71-3.46-1.71-2.54-3-2.54-2,1-3,2.54-2.23,3.46-4.71,3.46-3.72-1.92-4.71-3.46-1.71-2.54-3-2.54a1,1,0,0,1,0-2c2.48,0,3.71,1.92,4.71,3.46s1.7,2.54,3,2.54,2-1,3-2.54,2.23-3.46,4.71-3.46,3.71,1.92,4.71,3.46,1.7,2.54,3,2.54,2-1,3-2.54,2.23-3.46,4.71-3.46,3.71,1.92,4.71,3.46,1.7,2.54,3,2.54,2-1,3-2.54,2.23-3.46,4.71-3.46,3.71,1.91,4.71,3.46,1.71,2.54,3,2.54,2-1,3-2.54,2.23-3.46,4.71-3.46,3.72,1.92,4.71,3.46,1.71,2.54,3,2.54,2-1,3-2.54,2.23-3.46,4.71-3.46,3.72,1.91,4.72,3.46,1.71,2.54,3,2.54a1,1,0,0,1,0,2Z"/>
    <path class="e" d="M349.09,101a1.24,1.24,0,0,0-1.76,0,5.52,5.52,0,0,1-2.18,1.35L329.82,87a5.39,5.39,0,0,1,1.34-2.17,1.25,1.25,0,0,0-1.76-1.77,8.07,8.07,0,0,0-2.21,4,13.82,13.82,0,0,0,.23,6.07,44.3,44.3,0,0,0,1.73,5.54A42.76,42.76,0,0,0,323.62,97a14,14,0,0,0-6.07-.23,8.16,8.16,0,0,0-6.24,6.25,13.81,13.81,0,0,0,.22,6.07,44.9,44.9,0,0,0,1.74,5.53,44.41,44.41,0,0,0-5.54-1.73,13.78,13.78,0,0,0-6.06-.23,8.16,8.16,0,0,0-4,2.2h0a8.07,8.07,0,0,0-2.21,4,13.82,13.82,0,0,0,.23,6.07,44.81,44.81,0,0,0,1.73,5.53,44.28,44.28,0,0,0-5.53-1.73,13.93,13.93,0,0,0-6.06-.23,8.05,8.05,0,0,0-4,2.21,1,1,0,0,0-.16.19,1.25,1.25,0,0,0,1.77,1.7l.13-.11,0,0a5.51,5.51,0,0,1,2.16-1.33L301,146.49a5.52,5.52,0,0,1-1.35,2.18,1.26,1.26,0,0,0,0,1.77,1.26,1.26,0,0,0,1.76,0,8.14,8.14,0,0,0,2.21-4,13.82,13.82,0,0,0-.23-6.07,45.35,45.35,0,0,0-1.73-5.53,44.41,44.41,0,0,0,5.54,1.73A17.23,17.23,0,0,0,311,137a10.47,10.47,0,0,0,2.3-.24,8.14,8.14,0,0,0,4-2.21,8,8,0,0,0,2.2-4,14,14,0,0,0-.22-6.07,45.58,45.58,0,0,0-1.74-5.54,44,44,0,0,0,5.54,1.74,14,14,0,0,0,6.07.23,8.2,8.2,0,0,0,6.24-6.25,14,14,0,0,0-.23-6.07,45.35,45.35,0,0,0-1.73-5.53,44.28,44.28,0,0,0,5.53,1.73,13.82,13.82,0,0,0,6.07.23,8.13,8.13,0,0,0,4-2.2A1.25,1.25,0,0,0,349.09,101Zm-9.21,1.37L329.79,92.31a15.4,15.4,0,0,1-.29-2.06l12.44,12.44A16.79,16.79,0,0,1,339.88,102.39Zm-5.06-1.52-2.55-1c-.32-.85-.64-1.7-.95-2.55Zm-5.56,17.38-15.33-15.33a5.94,5.94,0,0,1,.57-1.19l15.95,16A5.44,5.44,0,0,1,329.26,118.25Zm-5.27,0-10.08-10.08a17.07,17.07,0,0,1-.3-2.06l12.44,12.44A15.29,15.29,0,0,1,324,118.27Zm-5.06-1.52-2.54-1c-.33-.84-.65-1.69-1-2.54ZM316.27,100a5.44,5.44,0,0,1,1.19-.57l15.33,15.33a5,5,0,0,1-.57,1.19Zm4.4-.89a15.29,15.29,0,0,1,2.06.3l10.08,10.08a13.84,13.84,0,0,1,.3,2.06Zm7.12,1.82q1.27.47,2.55,1c.32.84.64,1.69,1,2.54Zm-14.41,33.24L298.05,118.8a5,5,0,0,1,.57-1.19l15.95,16A5,5,0,0,1,313.38,134.13Zm-5.27,0L298,124.07a15.18,15.18,0,0,1-.29-2.06l12.44,12.44A15.18,15.18,0,0,1,308.11,134.16Zm-7.61-2.48c-.32-.85-.64-1.7-.95-2.55l3.5,3.5C302.2,132.33,301.35,132,300.5,131.68Zm-.11-15.84a5.94,5.94,0,0,1,1.19-.57l15.33,15.33a5.69,5.69,0,0,1-.57,1.19Zm4.4-.89a17.07,17.07,0,0,1,2.06.3l10.08,10.08a17.07,17.07,0,0,1,.3,2.06Zm7.12,1.83c.84.3,1.69.62,2.54,1,.33.85.65,1.69,1,2.54Zm-21,14.36L301,141.22a13.72,13.72,0,0,1,.3,2.05l-12.43-12.43A14.93,14.93,0,0,1,291,131.14Zm5.06,1.52,2.55,1c.32.85.64,1.7.95,2.55Z"/>
</g>
<g class="report">
    <rect class="a" x="230.8" y="73.93" width="118" height="167.68" rx="4"/>
    <path class="b" d="M344.8,74.93a3,3,0,0,1,3,3V237.61a3,3,0,0,1-3,3h-110a3,3,0,0,1-3-3V77.93a3,3,0,0,1,3-3h110m0-2h-110a5,5,0,0,0-5,5V237.61a5,5,0,0,0,5,5h110a5,5,0,0,0,5-5V77.93a5,5,0,0,0-5-5Z"/>
    <path d="M300.53,112.83c-3.06,0-4.34-3.16-5.48-5.94-.78-1.9-1.67-4.06-2.7-4.06s-1.92,2.16-2.7,4.06c-1.14,2.78-2.43,5.94-5.48,5.94s-4.34-3.16-5.47-5.94c-.78-1.9-1.67-4.06-2.7-4.06s-1.92,2.16-2.7,4.06c-1.14,2.78-2.43,5.94-5.48,5.94s-4.34-3.16-5.47-5.94c-.78-1.9-1.66-4.06-2.7-4.06s-1.92,2.16-2.7,4.06c-1.13,2.78-2.42,5.94-5.47,5.94s-4.34-3.16-5.48-5.94c-.77-1.9-1.66-4.06-2.69-4.06a1.5,1.5,0,0,1,0-3c3.05,0,4.34,3.15,5.47,5.93.78,1.91,1.66,4.07,2.7,4.07s1.92-2.16,2.7-4.07c1.13-2.78,2.42-5.93,5.47-5.93s4.34,3.15,5.47,5.93c.78,1.91,1.67,4.07,2.7,4.07s1.92-2.16,2.7-4.07c1.14-2.78,2.43-5.93,5.48-5.93s4.34,3.15,5.47,5.93c.78,1.91,1.67,4.07,2.7,4.07s1.92-2.16,2.7-4.07c1.14-2.78,2.43-5.93,5.48-5.93s4.34,3.15,5.48,5.93c.77,1.91,1.66,4.07,2.7,4.07s1.92-2.16,2.7-4.07c1.14-2.78,2.42-5.93,5.48-5.93a1.5,1.5,0,0,1,0,3c-1,0-1.93,2.16-2.71,4.06C304.87,109.67,303.58,112.83,300.53,112.83Z"/>
    <path class="c" d="M317.29,206c-2.49,0-3.74-1.92-4.74-3.45S310.83,200,309.5,200s-2,1-3.06,2.55S304.2,206,301.7,206,298,204,297,202.51s-1.72-2.55-3.05-2.55-2,1-3.06,2.55-2.24,3.45-4.73,3.45-3.73-1.92-4.73-3.46-1.72-2.54-3-2.54-2,1-3.06,2.54-2.24,3.46-4.73,3.46-3.73-1.92-4.73-3.46-1.72-2.54-3.05-2.54-2,1-3,2.54S257.48,206,255,206s-3.73-1.92-4.72-3.46-1.72-2.54-3.06-2.54a1,1,0,0,1,0-2c2.49,0,3.74,1.92,4.73,3.46S253.66,204,255,204s2-1,3.06-2.54,2.24-3.46,4.73-3.46,3.73,1.92,4.73,3.46,1.72,2.54,3.05,2.54,2-1,3.05-2.54,2.25-3.46,4.74-3.46,3.73,1.92,4.73,3.46,1.72,2.54,3.05,2.54,2-1,3.06-2.54,2.24-3.46,4.73-3.46,3.73,1.92,4.73,3.46,1.72,2.54,3.05,2.54,2-1,3.06-2.54S307,198,309.5,198s3.73,1.92,4.73,3.46S316,204,317.29,204a1,1,0,0,1,0,2Z"/>
    <path class="c" d="M332.38,220.11c-2.48,0-3.72-1.92-4.71-3.46s-1.71-2.54-3-2.54-2,1-3,2.54-2.23,3.46-4.71,3.46-3.72-1.92-4.72-3.46-1.7-2.54-3-2.54-2,1-3,2.54-2.23,3.46-4.71,3.46-3.72-1.92-4.71-3.46-1.71-2.54-3-2.54-2,1-3,2.54-2.24,3.46-4.72,3.46-3.71-1.92-4.71-3.46-1.7-2.54-3-2.54-2,1-3,2.54-2.23,3.46-4.71,3.46-3.71-1.92-4.7-3.46-1.71-2.54-3-2.54-2,1-3,2.54-2.23,3.46-4.71,3.46-3.72-1.92-4.72-3.46-1.7-2.54-3-2.54a1,1,0,0,1,0-2c2.49,0,3.72,1.91,4.72,3.45s1.7,2.55,3,2.55,2-1,3-2.55,2.23-3.45,4.71-3.45,3.71,1.91,4.71,3.46,1.7,2.54,3,2.54,2-1,3-2.55,2.23-3.45,4.71-3.45,3.72,1.91,4.72,3.45,1.7,2.55,3,2.55,2-1,3-2.55,2.24-3.45,4.72-3.45,3.71,1.91,4.71,3.45,1.7,2.55,3,2.55,2-1,3-2.55,2.23-3.45,4.71-3.45,3.72,1.91,4.71,3.45,1.71,2.55,3,2.55,2-1,3-2.55,2.23-3.45,4.71-3.45,3.72,1.91,4.72,3.45,1.71,2.55,3,2.55a1,1,0,0,1,0,2Z"/>
    <path class="f" d="M325.47,139.3a1.24,1.24,0,0,0-1.76,0,5.49,5.49,0,0,1-2.18,1.34L306.2,125.31a5.38,5.38,0,0,1,1.34-2.18,1.25,1.25,0,0,0-1.77-1.76,8.13,8.13,0,0,0-2.2,4,13.82,13.82,0,0,0,.23,6.07,43.66,43.66,0,0,0,1.73,5.53,44.81,44.81,0,0,0-5.53-1.73,14,14,0,0,0-6.07-.23,8.19,8.19,0,0,0-6.25,6.25,13.93,13.93,0,0,0,.23,6.06,45.6,45.6,0,0,0,1.73,5.54,44.37,44.37,0,0,0-5.53-1.74,13.92,13.92,0,0,0-6.06-.22,8,8,0,0,0-4,2.2,8.14,8.14,0,0,0-2.21,4,13.78,13.78,0,0,0,.23,6.06,44.41,44.41,0,0,0,1.73,5.54,44.28,44.28,0,0,0-5.53-1.73,13.78,13.78,0,0,0-6.06-.23,8.11,8.11,0,0,0-4,2.19l0,0-.11.13a1.25,1.25,0,0,0,1.71,1.77l.21-.14.07-.1a5.4,5.4,0,0,1,2.09-1.26l15.33,15.33a5.61,5.61,0,0,1-1.34,2.18l-.14.16a1.26,1.26,0,0,0,.13,1.61,1.28,1.28,0,0,0,.89.36,1.24,1.24,0,0,0,.88-.36l.09-.1a8,8,0,0,0,2.12-3.94,14,14,0,0,0-.23-6.07,44.81,44.81,0,0,0-1.73-5.53,44.81,44.81,0,0,0,5.53,1.73,17.39,17.39,0,0,0,3.77.47,10.54,10.54,0,0,0,2.3-.24,8.16,8.16,0,0,0,6.24-6.25,13.83,13.83,0,0,0-.23-6.07,44.17,44.17,0,0,0-1.73-5.53,44,44,0,0,0,5.54,1.74,13.76,13.76,0,0,0,6.06.22,8.16,8.16,0,0,0,6.25-6.24,14,14,0,0,0-.23-6.07,43.76,43.76,0,0,0-1.74-5.53,44.94,44.94,0,0,0,5.54,1.73,13.82,13.82,0,0,0,6.07.23,8.07,8.07,0,0,0,4-2.21A1.24,1.24,0,0,0,325.47,139.3Zm-9.21,1.37-10.09-10.09a16.79,16.79,0,0,1-.3-2.06L318.31,141A16.93,16.93,0,0,1,316.26,140.67Zm-5.06-1.53c-.85-.3-1.7-.62-2.55-.95-.33-.85-.65-1.7-.95-2.55Zm-5.56,17.39L290.31,141.2a5.44,5.44,0,0,1,.57-1.19l15.95,16A5.94,5.94,0,0,1,305.64,156.53Zm-5.27,0-10.08-10.08a17.07,17.07,0,0,1-.3-2.06l12.44,12.44A17.07,17.07,0,0,1,300.37,156.55Zm-7.6-2.48c-.33-.84-.65-1.7-1-2.55l3.5,3.51C294.46,154.72,293.61,154.4,292.77,154.07Zm-.12-15.83a5.44,5.44,0,0,1,1.19-.57L309.17,153a5.44,5.44,0,0,1-.57,1.19Zm4.4-.89a13.84,13.84,0,0,1,2.06.3l10.08,10.08a15.29,15.29,0,0,1,.3,2.06Zm7.12,1.82,2.54,1q.5,1.27,1,2.55Zm-14.41,33.24-15.33-15.33a5,5,0,0,1,.57-1.19l15.95,16A5,5,0,0,1,289.76,172.41Zm-5.27,0L274.4,162.35a15.18,15.18,0,0,1-.29-2.06l12.44,12.44A15.18,15.18,0,0,1,284.49,172.44ZM276.88,170c-.32-.85-.64-1.7-.95-2.55l3.5,3.5Zm-.11-15.84a5.94,5.94,0,0,1,1.19-.57l15.33,15.33a5.94,5.94,0,0,1-.57,1.19Zm4.4-.89a17.07,17.07,0,0,1,2.06.3l10.08,10.08a17.07,17.07,0,0,1,.3,2.06Zm7.12,1.82,2.54,1c.33.84.65,1.69.95,2.54Zm-21,14.37,10.08,10.07a13.84,13.84,0,0,1,.3,2.06l-12.43-12.43A13.72,13.72,0,0,1,267.34,169.42Zm5.06,1.52,2.55.95c.32.85.64,1.7.95,2.55Z"/>
</g>
<g class="report">
    <rect class="a" x="1" y="26.51" width="118" height="167.68" rx="4"/>
    <path class="b" d="M115,27.51a3,3,0,0,1,3,3V190.19a3,3,0,0,1-3,3H5a3,3,0,0,1-3-3V30.51a3,3,0,0,1,3-3H115m0-2H5a5,5,0,0,0-5,5V190.19a5,5,0,0,0,5,5H115a5,5,0,0,0,5-5V30.51a5,5,0,0,0-5-5Z"/>
    <path d="M106.49,65.41c-2.66,0-3.61-3.08-4.54-6.06-.39-1.28-1.14-3.68-1.71-4-.48.27-1.23,2.67-1.63,4-.92,3-1.88,6.06-4.53,6.06s-3.61-3.08-4.54-6.06c-.39-1.28-1.14-3.68-1.71-4-.48.27-1.22,2.67-1.62,4-.92,3-1.88,6.06-4.53,6.06s-3.61-3.08-4.53-6.06c-.4-1.28-1.14-3.68-1.72-4-.48.27-1.22,2.67-1.62,4-.92,3-1.87,6.06-4.53,6.06s-3.61-3.08-4.53-6.06c-.4-1.28-1.14-3.68-1.71-4-.48.27-1.22,2.67-1.62,4-.93,3-1.88,6.06-4.53,6.06s-3.61-3.08-4.54-6.06c-.39-1.28-1.14-3.68-1.71-4-.47.27-1.22,2.67-1.61,4-.93,3-1.88,6.06-4.53,6.06S40.89,62.33,40,59.35c-.4-1.28-1.15-3.68-1.72-4-.48.27-1.22,2.67-1.62,4-.92,3-1.87,6.06-4.53,6.06s-3.61-3.08-4.53-6.06c-.4-1.28-1.14-3.68-1.71-4-.48.27-1.22,2.67-1.62,4-.92,3-1.88,6.06-4.53,6.06s-3.61-3.08-4.53-6.06c-.4-1.28-1.15-3.68-1.72-4A1.48,1.48,0,0,1,12,53.9a1.51,1.51,0,0,1,1.52-1.49c2.65,0,3.61,3.08,4.53,6.06.4,1.28,1.14,3.68,1.71,4,.48-.27,1.22-2.67,1.62-4,.93-3,1.88-6.06,4.53-6.06s3.61,3.08,4.54,6.06c.39,1.28,1.14,3.68,1.71,4,.48-.27,1.22-2.67,1.62-4,.92-3,1.87-6.06,4.53-6.06s3.61,3.08,4.53,6.06c.4,1.28,1.14,3.68,1.71,4,.48-.27,1.22-2.67,1.62-4,.92-3,1.88-6.06,4.53-6.06s3.61,3.08,4.53,6.06c.4,1.28,1.14,3.68,1.71,4,.48-.27,1.22-2.67,1.62-4,.92-3,1.88-6.06,4.53-6.06s3.61,3.08,4.54,6.06c.39,1.28,1.14,3.68,1.71,4,.48-.27,1.22-2.67,1.62-4,.92-3,1.87-6.06,4.53-6.06s3.61,3.08,4.53,6.06c.4,1.28,1.14,3.68,1.71,4,.48-.27,1.23-2.67,1.63-4,.92-3,1.87-6.05,4.53-6.05s3.61,3.08,4.53,6.06c.4,1.28,1.14,3.68,1.71,4,.49-.27,1.23-2.67,1.63-4,.92-3,1.88-6.05,4.53-6.05s3.62,3.08,4.54,6.05c.4,1.29,1.14,3.69,1.71,4A1.48,1.48,0,0,1,108,63.91,1.52,1.52,0,0,1,106.49,65.41Z"/>
    <path class="c" d="M87.49,158.54c-2.49,0-3.74-1.91-4.74-3.45s-1.72-2.55-3-2.55-2,1-3.06,2.55-2.24,3.45-4.73,3.45-3.74-1.91-4.74-3.45-1.71-2.55-3-2.55-2,1-3.05,2.55-2.25,3.45-4.74,3.45-3.73-1.91-4.73-3.45-1.72-2.55-3.05-2.55-2,1-3.06,2.55-2.24,3.45-4.73,3.45S37,156.63,36,155.09s-1.71-2.55-3.05-2.55-2,1-3,2.55-2.24,3.45-4.73,3.45-3.73-1.91-4.73-3.45-1.72-2.55-3-2.55a1,1,0,1,1,0-2c2.49,0,3.73,1.92,4.73,3.46s1.71,2.54,3.05,2.54,2-1,3.05-2.54,2.24-3.46,4.73-3.46,3.73,1.92,4.73,3.46,1.72,2.54,3,2.54,2-1,3.06-2.54,2.24-3.46,4.73-3.46,3.73,1.92,4.73,3.46,1.72,2.54,3,2.54,2-1,3.06-2.54,2.24-3.46,4.73-3.46,3.73,1.92,4.73,3.46,1.72,2.54,3.06,2.54,2-1,3-2.54,2.25-3.46,4.74-3.46,3.73,1.92,4.73,3.46,1.72,2.54,3.06,2.54a1,1,0,0,1,0,2Z"/>
    <path class="c" d="M102.58,172.69c-2.48,0-3.72-1.92-4.71-3.46s-1.71-2.54-3-2.54-2,1-3,2.54-2.23,3.46-4.71,3.46-3.72-1.92-4.71-3.46-1.71-2.54-3-2.54-2,1-3,2.54-2.23,3.46-4.71,3.46-3.72-1.92-4.71-3.46-1.71-2.54-3-2.54-2,1-3,2.54-2.23,3.46-4.71,3.46-3.72-1.92-4.71-3.46-1.71-2.54-3-2.54-2,1-3,2.54-2.23,3.46-4.71,3.46-3.72-1.92-4.71-3.46-1.71-2.54-3-2.54-2,1-3,2.54-2.23,3.46-4.71,3.46-3.72-1.92-4.71-3.46-1.71-2.54-3-2.54a1,1,0,0,1,0-2c2.48,0,3.71,1.92,4.71,3.46s1.7,2.54,3,2.54,2-1,3-2.54,2.23-3.46,4.71-3.46,3.72,1.92,4.71,3.46,1.7,2.54,3,2.54,2-1,3-2.54,2.23-3.46,4.71-3.46,3.71,1.92,4.71,3.46,1.7,2.54,3,2.54,2-1,3-2.54,2.23-3.46,4.71-3.46,3.71,1.92,4.71,3.46,1.71,2.54,3,2.54,2-1,3-2.54,2.23-3.46,4.71-3.46,3.72,1.92,4.72,3.46,1.7,2.54,3,2.54,2-1,3-2.54,2.23-3.46,4.72-3.46,3.71,1.92,4.71,3.46,1.71,2.54,3,2.54a1,1,0,0,1,0,2Z"/>
    <path class="g" d="M95.68,91.88a1.25,1.25,0,0,0-1.77,0,5.52,5.52,0,0,1-2.18,1.35L76.4,77.89a5.64,5.64,0,0,1,1.34-2.17A1.25,1.25,0,0,0,76,74a8.11,8.11,0,0,0-2.21,4A13.82,13.82,0,0,0,74,84.05a46,46,0,0,0,1.73,5.54,44.37,44.37,0,0,0-5.53-1.74,13.8,13.8,0,0,0-6.07-.22,8.13,8.13,0,0,0-6.24,6.24,14,14,0,0,0,.22,6.07,44.37,44.37,0,0,0,1.74,5.53,44.81,44.81,0,0,0-5.53-1.73,13.83,13.83,0,0,0-6.07-.23A8.2,8.2,0,0,0,42,109.75a14,14,0,0,0,.23,6.07A45.48,45.48,0,0,0,44,121.36a42.76,42.76,0,0,0-5.53-1.74,13.93,13.93,0,0,0-6.06-.23,8.19,8.19,0,0,0-4,2.19l0,0-.11.13a1.25,1.25,0,0,0,1.7,1.77l.21-.14.07-.1A5.61,5.61,0,0,1,32.27,122L47.6,137.35a5.49,5.49,0,0,1-1.34,2.18l-.14.16A1.25,1.25,0,0,0,48,141.3l.1-.09a8.18,8.18,0,0,0,2.11-4,13.82,13.82,0,0,0-.23-6.07,45.35,45.35,0,0,0-1.73-5.53,44.51,44.51,0,0,0,5.54,1.74,17.17,17.17,0,0,0,3.76.46,10.47,10.47,0,0,0,2.3-.24,8.14,8.14,0,0,0,4-2.21,8,8,0,0,0,2.2-4,13.81,13.81,0,0,0-.22-6.07,43.76,43.76,0,0,0-1.74-5.53,45.6,45.6,0,0,0,5.54,1.73,13.82,13.82,0,0,0,6.07.23A8.2,8.2,0,0,0,82,105.49a13.78,13.78,0,0,0-.23-6.06A45.48,45.48,0,0,0,80,93.89a46.11,46.11,0,0,0,5.53,1.74,13.81,13.81,0,0,0,6.07.22,8.12,8.12,0,0,0,4-2.2A1.27,1.27,0,0,0,95.68,91.88Zm-9.22,1.37L76.37,83.17a15.4,15.4,0,0,1-.29-2.06L88.52,93.55A17.07,17.07,0,0,1,86.46,93.25ZM81.4,91.73l-2.55-1c-.32-.85-.64-1.7-.95-2.55Zm-5.55,17.38L60.51,93.78a5.94,5.94,0,0,1,.57-1.19l16,16A5.36,5.36,0,0,1,75.85,109.11Zm-5.28,0L60.49,99.05a17.07,17.07,0,0,1-.3-2.06l12.44,12.44A13.84,13.84,0,0,1,70.57,109.13ZM63,106.66q-.49-1.27-1-2.55l3.51,3.5Zm-.12-15.84A5.94,5.94,0,0,1,64,90.25l15.33,15.33a5,5,0,0,1-.57,1.19Zm4.4-.89a16.79,16.79,0,0,1,2.06.3L79.4,100.31a15.18,15.18,0,0,1,.29,2.06Zm7.12,1.82,2.55,1c.32.84.64,1.69,1,2.54ZM60,125,44.63,109.66a5.67,5.67,0,0,1,.57-1.19l15.95,16A5,5,0,0,1,60,125Zm-5.27,0L44.61,114.93a13.66,13.66,0,0,1-.3-2.06l12.44,12.45A17.07,17.07,0,0,1,54.69,125Zm-7.61-2.48c-.32-.85-.64-1.7-.95-2.55l3.5,3.51C48.79,123.19,47.93,122.87,47.08,122.54ZM47,106.71a5,5,0,0,1,1.19-.57l15.33,15.33a5.67,5.67,0,0,1-.57,1.19Zm4.4-.89a15.18,15.18,0,0,1,2.06.29l10.08,10.08a17.36,17.36,0,0,1,.3,2.06Zm7.12,1.82c.85.31,1.69.62,2.54,1,.33.85.65,1.7,1,2.54ZM37.55,122l10.08,10.08a15,15,0,0,1,.29,2L35.49,121.7A17.07,17.07,0,0,1,37.55,122Zm5.06,1.52,2.54,1c.32.84.64,1.69,1,2.54Z"/>
</g>
</svg> 