<svg xmlns="http://www.w3.org/2000/svg" viewBox="0 0 102.92 102.92">
<path class="SVG-rebilance-logo" d="M51.7,0c27.92.05,51.14,23.22,51.22,51.1.09,28.11-23.43,51.79-51.45,51.82C23.29,103-.06,79.52,0,51.29A51.48,51.48,0,0,1,51.7,0ZM16.4,46.88C17,54.23,20.26,61.29,28,65.7c1.14.65,2.43,1.91,3.7.81s.32-2.59-.09-3.84c-1.36-4.12-3.33-8-4.3-12.29-2.16-9.51.3-14.66,9.38-18.25,4.24-1.68,8.81-2.55,13.2-3.88,1.24-.37,3.06-.42,3.19-2.08.13-1.82-1.71-2.24-3-2.84C34.38,16.13,16.27,28.18,16.4,46.88Zm37,6a25.69,25.69,0,0,0,8.77-1.44c2.2-.82,4-2.14,4.27-4.7.45-4,2.35-7.29,4.37-10.6,1.81-3,3.91-5.8,4.79-9.24,1.28-5-2-8.39-6.81-6.76A21.36,21.36,0,0,0,55,33.85a6.09,6.09,0,0,0,.08,4.74c1.6,3.36-.21,4.67-3.12,5s-5.71.28-8.55.53c-1.68.15-3.9-.09-4.37,2s1.56,3.21,3.18,4.08A26,26,0,0,0,53.41,52.92Z"/>
</svg>