<svg id="report-and-recommend-SVG" xmlns="http://www.w3.org/2000/svg" xmlns:xlink="http://www.w3.org/1999/xlink" viewBox="0 0 276 276">
    <defs>
        <style>
            #report-and-recommend-SVG .a{fill:#fefefe;}
            #report-and-recommend-SVG .b{fill:#ececec;}
            #report-and-recommend-SVG .c{fill:#727272;}
            #report-and-recommend-SVG .d{fill:#c33;}
            #report-and-recommend-SVG .e{fill:#f93;}
            #report-and-recommend-SVG .f{fill:#fcfcf7;}
            #report-and-recommend-SVG .g{fill:url(#a);}
            #report-and-recommend-SVG .h{fill:#dfe8df;}
            #report-and-recommend-SVG .i{fill:#ceccca;}
            #report-and-recommend-SVG .j{fill:#ccc8c4;}
            #report-and-recommend-SVG .k{fill:#b7afa9;}
            #report-and-recommend-SVG .l{fill:#56b458;}
            #report-and-recommend-SVG .m{fill:#77d678;}
            #report-and-recommend-SVG .n{fill:#c63;}

            #report-and-recommend-SVG g {
                transition-duration: 500ms;
            }

            #report-and-recommend-SVG g:nth-of-type(1) {
                transform: scale(0.7) translate(140px, 155px);
            }

            #report-and-recommend-SVG g:nth-of-type(2) {
                transform: scale(0.4) translate(200px, 355px);
                filter: opacity(0);
            }

            #report-and-reccommendations:hover g:nth-of-type(1) {
                transform:translate(50px, 105px) scale(0.77);
            }

            #report-and-reccommendations:hover g:nth-of-type(2) {
                transform: scale(0.77) translate(60px, 140px);
                filter: opacity(1);
            }
        </style>
        <linearGradient id="a" x1="91.05" y1="138.24" x2="272.23" y2="29.51" gradientUnits="userSpaceOnUse">
        <stop offset="0" stop-color="#fefefe"/>
        <stop offset="0.12" stop-color="#f9f9f9"/>
        <stop offset="0.51" stop-color="#efefef"/>
        <stop offset="1" stop-color="#ececec"/>
        </linearGradient>
    </defs>
    <g>
        <rect class="a" x="1" y="21.25" width="118" height="167.68" rx="4"/>
        <path class="b" d="M115,22.25a3,3,0,0,1,3,3V184.93a3,3,0,0,1-3,3H5a3,3,0,0,1-3-3V25.25a3,3,0,0,1,3-3H115m0-2H5a5,5,0,0,0-5,5V184.93a5,5,0,0,0,5,5H115a5,5,0,0,0,5-5V25.25a5,5,0,0,0-5-5Z"/>
        <path d="M106.49,60.14c-2.66,0-3.61-3.08-4.54-6.06-.39-1.28-1.14-3.68-1.71-3.95-.48.27-1.23,2.67-1.63,3.95-.92,3-1.88,6.06-4.53,6.06s-3.61-3.08-4.54-6.06c-.39-1.28-1.14-3.68-1.71-3.95-.48.27-1.22,2.67-1.62,3.95-.92,3-1.88,6.06-4.53,6.06s-3.61-3.08-4.53-6.06c-.4-1.28-1.14-3.68-1.72-3.95-.48.27-1.22,2.67-1.62,3.95-.92,3-1.87,6.06-4.53,6.06s-3.61-3.08-4.53-6.06c-.4-1.28-1.14-3.68-1.71-3.95-.48.27-1.22,2.67-1.62,3.95-.93,3-1.88,6.06-4.53,6.06s-3.61-3.08-4.54-6.06c-.39-1.28-1.14-3.68-1.71-3.95-.47.27-1.22,2.67-1.61,3.95-.93,3-1.88,6.06-4.53,6.06S40.89,57.06,40,54.08c-.4-1.28-1.15-3.68-1.72-3.95-.48.27-1.22,2.67-1.62,3.95-.92,3-1.87,6.06-4.53,6.06s-3.61-3.08-4.53-6.06c-.4-1.28-1.14-3.68-1.71-3.95-.48.27-1.22,2.67-1.62,3.95-.92,3-1.88,6.06-4.53,6.06s-3.61-3.08-4.53-6.06c-.4-1.28-1.15-3.68-1.72-3.95A1.48,1.48,0,0,1,12,48.64a1.52,1.52,0,0,1,1.52-1.5c2.65,0,3.61,3.08,4.53,6.06.4,1.28,1.14,3.68,1.71,3.95.48-.27,1.22-2.67,1.62-3.95.93-3,1.88-6.06,4.53-6.06s3.61,3.08,4.54,6.06c.39,1.28,1.14,3.68,1.71,3.95.48-.27,1.22-2.67,1.62-3.95.92-3,1.87-6.06,4.53-6.06s3.61,3.08,4.53,6.06c.4,1.28,1.14,3.68,1.71,3.95.48-.27,1.22-2.67,1.62-3.95.92-3,1.88-6.06,4.53-6.06s3.61,3.08,4.53,6.06c.4,1.28,1.14,3.68,1.71,3.95.48-.27,1.22-2.67,1.62-3.95.92-3,1.88-6.06,4.53-6.06s3.61,3.08,4.54,6.06c.39,1.28,1.14,3.68,1.71,3.95.48-.27,1.22-2.67,1.62-3.95.92-3,1.87-6.06,4.53-6.06S79.09,50.22,80,53.2c.4,1.28,1.14,3.68,1.71,3.95.48-.27,1.23-2.67,1.63-3.95.92-3,1.87-6.06,4.53-6.06s3.61,3.08,4.53,6.06c.4,1.28,1.14,3.68,1.71,3.95.49-.27,1.23-2.67,1.63-3.95.92-3,1.88-6.06,4.53-6.06s3.62,3.08,4.54,6.06c.4,1.28,1.14,3.68,1.71,3.95A1.48,1.48,0,0,1,108,58.64,1.52,1.52,0,0,1,106.49,60.14Z"/>
        <path class="c" d="M64,145.28v2c-1.28.05-2,1-3,2.53s-2.24,3.47-4.73,3.47-3.73-1.93-4.73-3.47-1.72-2.53-3.06-2.53-2,1-3,2.53-2.24,3.47-4.73,3.47S37,151.35,36,149.81s-1.72-2.53-3.05-2.53-2,1-3.06,2.53-2.24,3.47-4.73,3.47-3.73-1.93-4.73-3.47-1.71-2.53-3.05-2.53a1,1,0,1,1,0-2c2.49,0,3.73,1.92,4.73,3.45s1.72,2.55,3.05,2.55,2-1,3.06-2.56,2.24-3.44,4.73-3.44,3.73,1.92,4.73,3.45,1.71,2.55,3,2.55,2-1,3.05-2.56,2.24-3.44,4.73-3.44,3.73,1.92,4.73,3.44,1.72,2.56,3.06,2.56,2-1,3.05-2.56S61.6,145.33,64,145.28Z"/>
        <path class="d" d="M88.17,156.74H64.9a1,1,0,0,1,0-2H88.17a1,1,0,1,1,0,2Z"/>
        <path class="d" d="M88.48,152.28a1,1,0,0,1-1,1c-2.49,0-3.73-1.93-4.73-3.47s-1.72-2.53-3.06-2.53-2,1-3,2.53-2.25,3.47-4.74,3.47-3.73-1.93-4.73-3.47-1.72-2.53-3-2.53H64v-2h.1c2.49,0,3.73,1.92,4.73,3.44s1.72,2.56,3.05,2.56,2-1,3.06-2.56,2.24-3.44,4.73-3.44,3.74,1.92,4.74,3.44,1.72,2.56,3,2.56A1,1,0,0,1,88.48,152.28Z"/>
        <path class="c" d="M102.58,167.42c-2.48,0-3.72-1.92-4.71-3.46s-1.71-2.54-3-2.54-2,1-3,2.54-2.23,3.46-4.71,3.46-3.72-1.92-4.71-3.46-1.71-2.54-3-2.54-2,1-3,2.54-2.23,3.46-4.71,3.46-3.72-1.92-4.71-3.46-1.71-2.54-3-2.54-2,1-3,2.54-2.23,3.46-4.71,3.46S52.4,165.5,51.41,164s-1.71-2.54-3-2.54-2,1-3,2.54-2.23,3.46-4.71,3.46-3.72-1.92-4.71-3.46-1.71-2.54-3-2.54-2,1-3,2.54-2.23,3.46-4.71,3.46-3.72-1.92-4.71-3.46-1.71-2.54-3-2.54a1,1,0,1,1,0-2c2.48,0,3.71,1.92,4.71,3.46s1.7,2.54,3,2.54,2-1,3-2.54,2.23-3.46,4.71-3.46,3.72,1.92,4.71,3.46,1.7,2.54,3,2.54,2-1,3-2.54,2.23-3.46,4.71-3.46,3.71,1.92,4.71,3.46,1.7,2.54,3,2.54,2-1,3-2.54,2.23-3.46,4.71-3.46,3.71,1.92,4.71,3.46,1.71,2.54,3,2.54,2-1,3-2.54,2.23-3.46,4.71-3.46,3.72,1.92,4.72,3.46,1.7,2.54,3,2.54,2-1,3-2.54,2.23-3.46,4.72-3.46,3.71,1.92,4.71,3.46,1.71,2.54,3,2.54a1,1,0,1,1,0,2Z"/>
        <path class="e" d="M95.68,86.61a1.25,1.25,0,0,0-1.77,0A5.52,5.52,0,0,1,91.73,88L76.4,72.62a5.64,5.64,0,0,1,1.34-2.17A1.25,1.25,0,1,0,76,68.68a8.11,8.11,0,0,0-2.21,4A13.82,13.82,0,0,0,74,78.78a46,46,0,0,0,1.73,5.54,44.37,44.37,0,0,0-5.53-1.74,13.8,13.8,0,0,0-6.07-.22,8.13,8.13,0,0,0-6.24,6.24,14,14,0,0,0,.22,6.07,43.86,43.86,0,0,0,1.74,5.53,44.81,44.81,0,0,0-5.53-1.73,13.83,13.83,0,0,0-6.07-.23A8.2,8.2,0,0,0,42,104.48a14,14,0,0,0,.23,6.07A44.94,44.94,0,0,0,44,116.09a44.37,44.37,0,0,0-5.53-1.74,13.76,13.76,0,0,0-6.06-.22,8.09,8.09,0,0,0-4,2.18l0,0-.11.13a1.25,1.25,0,0,0,1.7,1.78l.21-.15.07-.1a5.61,5.61,0,0,1,2.09-1.26L47.6,132.08a5.49,5.49,0,0,1-1.34,2.18l-.14.16A1.25,1.25,0,0,0,48,136l.1-.09A8.18,8.18,0,0,0,50.23,132a13.82,13.82,0,0,0-.23-6.07,45.35,45.35,0,0,0-1.73-5.53,44.51,44.51,0,0,0,5.54,1.74,17.17,17.17,0,0,0,3.76.46,10.47,10.47,0,0,0,2.3-.24,8.14,8.14,0,0,0,4-2.21,8,8,0,0,0,2.2-4,13.81,13.81,0,0,0-.22-6.07,43.76,43.76,0,0,0-1.74-5.53,43.9,43.9,0,0,0,5.54,1.73,13.82,13.82,0,0,0,6.07.23A8.2,8.2,0,0,0,82,100.22a13.78,13.78,0,0,0-.23-6.06A45.48,45.48,0,0,0,80,88.62a44.37,44.37,0,0,0,5.53,1.74,13.81,13.81,0,0,0,6.07.22,8.12,8.12,0,0,0,4-2.2A1.27,1.27,0,0,0,95.68,86.61ZM86.46,88,76.37,77.9a15.18,15.18,0,0,1-.29-2.06L88.52,88.28A17.07,17.07,0,0,1,86.46,88ZM81.4,86.46l-2.55-1c-.32-.85-.64-1.7-.95-2.55Zm-5.55,17.38L60.51,88.51a5.94,5.94,0,0,1,.57-1.19l16,16A5,5,0,0,1,75.85,103.84Zm-5.28,0L60.49,93.78a17.07,17.07,0,0,1-.3-2.06l12.44,12.44A13.84,13.84,0,0,1,70.57,103.86ZM63,101.39q-.49-1.27-1-2.55l3.51,3.5Zm-.12-15.84A5.94,5.94,0,0,1,64,85l15.33,15.33a5,5,0,0,1-.57,1.19Zm4.4-.89a16.79,16.79,0,0,1,2.06.3L79.4,95a15.18,15.18,0,0,1,.29,2.06Zm7.12,1.82,2.55,1c.32.84.64,1.69,1,2.54ZM60,119.73,44.63,104.39a5.67,5.67,0,0,1,.57-1.19l15.95,16A5.94,5.94,0,0,1,60,119.73Zm-5.27,0L44.61,109.66a13.72,13.72,0,0,1-.3-2l12.44,12.44A17.07,17.07,0,0,1,54.69,119.75Zm-7.61-2.48c-.32-.85-.64-1.7-.95-2.55l3.5,3.51ZM47,101.44a5,5,0,0,1,1.19-.57L63.49,116.2a5.67,5.67,0,0,1-.57,1.19Zm4.4-.89a15.18,15.18,0,0,1,2.06.29l10.08,10.08a17.36,17.36,0,0,1,.3,2.06Zm7.12,1.82,2.54.95q.49,1.28,1,2.55ZM37.55,116.73l10.08,10.08a15,15,0,0,1,.29,2.05L35.49,116.43A17.07,17.07,0,0,1,37.55,116.73Zm5.06,1.52,2.54,1c.32.84.64,1.69,1,2.54Z"/>
    </g>
    <g>
    <circle class="f" cx="209.32" cy="66.76" r="65.79"/>
    <path class="g" d="M266.7,32.12a67.25,67.25,0,0,0-115.32,1,1.27,1.27,0,0,0-.1.12L86.5,141.46a1,1,0,0,0,0,1,1,1,0,0,0,.86.48h.06L214,134.38l0,0A67.26,67.26,0,0,0,266.7,32.12ZM145.06,47.51a67.15,67.15,0,0,0,52.6,86L89.2,140.85Zm98.36,75.42A65,65,0,0,1,214,132.39h-.1l-1.53.11a65.86,65.86,0,0,1-18.27-1.75A65.29,65.29,0,0,1,145.85,52a66.18,66.18,0,0,1,6.88-17.32l.26-.43s0-.07,0-.1a65.29,65.29,0,1,1,90.39,88.77Z"/>
    <path class="h" d="M230.25,43.3a8.79,8.79,0,0,0-1.82-.83l3.64.61a11.22,11.22,0,0,1,4.4.73C242,45.9,246,52.13,246,59.61s-4,13.71-9.53,15.8a11,11,0,0,1-4.4.73l-3.64.61a9.3,9.3,0,0,0,1.82-.82c4.73-2.66,8.08-8.92,8.08-16.32S235,46,230.25,43.3Z"/>
    <path class="i" d="M225.17,55l-12.53-.54c1.58-7,6.38-12.29,12.19-12.51h.37l3.23.53a8.79,8.79,0,0,1,1.82.83c4.73,2.65,8.08,8.91,8.08,16.31S235,73.27,230.25,75.93a9.3,9.3,0,0,1-1.82.82l-3.23.53h0a2.16,2.16,0,0,1-.36,0c-5.85-.22-10.69-5.57-12.22-12.69l12-.51,1.42,0h0a4.49,4.49,0,0,0,3.08-4.47A4.36,4.36,0,0,0,225.59,55Z"/>
    <path class="h" d="M206.82,54.19l5.82.26,12.53.54.42,0a4.36,4.36,0,0,1,3.57,4.54A4.49,4.49,0,0,1,226.08,64h0l-1.42,0-12,.51-5.74.24a31.68,31.68,0,0,0,.45-5.22A29.14,29.14,0,0,0,206.82,54.19Z"/>
    <path class="h" d="M179.39,34.3l10.51,1.75h0l3.08.51s0,0,0,0c6.78,1.92,12.2,8.73,13.8,17.62a29.14,29.14,0,0,1,.5,5.42,31.68,31.68,0,0,1-.45,5.22c-1.57,9-7,15.89-13.85,17.82l-3.1.52-10.49,1.74a14,14,0,0,0,4.72-2.63c4.19-3.46,7.34-9.54,8.45-16.84a39.58,39.58,0,0,0,.44-5.83,37.09,37.09,0,0,0-.48-6c-1.12-7.22-4.25-13.21-8.41-16.64A13.72,13.72,0,0,0,179.39,34.3Z"/>
    <path class="h" d="M174.23,52.91a2.46,2.46,0,0,0-.38-.14l.77,0,1.64.08h0c2,.66,3.57,3.36,3.57,6.6s-1.58,6-3.68,6.64h0l-1.44.06-.94,0a3.06,3.06,0,0,0,.48-.17c1.88-.83,3.24-3.45,3.24-6.58S176.11,53.73,174.23,52.91Z"/>
    <path class="j" d="M159.55,66.82c2,10.29,8.15,18.14,15.7,18.6a7.39,7.39,0,0,0,1.05,0h0l3.08-.51h0a14,14,0,0,0,4.72-2.63c4.19-3.46,7.34-9.54,8.45-16.84a39.58,39.58,0,0,0,.44-5.83,37.09,37.09,0,0,0-.48-6c-1.12-7.22-4.25-13.21-8.41-16.64a13.72,13.72,0,0,0-4.76-2.64l-.07,0-3-.5h0c-.35,0-.69,0-1,0-7.49.46-13.63,8.19-15.66,18.36a39,39,0,0,0-.72,7.45A38.18,38.18,0,0,0,159.55,66.82Zm12.14-13.89a2.84,2.84,0,0,1,.68-.22h0l1.46.06h0l.77,0,1.64.08h0c2,.66,3.57,3.36,3.57,6.6s-1.58,6-3.68,6.64h0l-1.44.06-.94,0h0l-1.27,0h0a3.12,3.12,0,0,1-.8-.26c-1.84-.88-3.17-3.48-3.17-6.53S169.83,53.78,171.69,52.93Z"/>
    <path class="k" d="M168.48,59.49c0-3.09,1.35-5.71,3.21-6.56a2.84,2.84,0,0,1,.68-.22h0l1.46.06h0a2.46,2.46,0,0,1,.38.14c1.88.82,3.25,3.45,3.25,6.57s-1.36,5.75-3.24,6.58a3.06,3.06,0,0,1-.48.17h0l-1.27,0h0a3.12,3.12,0,0,1-.8-.26C169.81,65.14,168.48,62.54,168.48,59.49Z"/>
    <path class="l" d="M239.37,75.37c.54-.34,1.14-.76,1.73-1.19s1.18-.91,1.76-1.38l1.73-1.46c.57-.49,1.13-1,1.65-1.49a3.81,3.81,0,1,1,5.26,5.51,3.9,3.9,0,0,1-1.28.81l-.13,0c-.8.29-1.57.55-2.35.81s-1.56.49-2.34.71-1.58.44-2.39.64a25,25,0,0,1-2.55.51,1.85,1.85,0,0,1-2.1-1.58,1.84,1.84,0,0,1,.86-1.84Z"/>
    <path class="m" d="M237.45,79.35a1,1,0,0,1-.41-1.91l11.17-5.07a1,1,0,0,1,.83,1.82l-11.17,5.07A.91.91,0,0,1,237.45,79.35Z"/>
    <path class="e" d="M234.72,88.61a167.52,167.52,0,0,1-23.85,5l-1.87.24c-1.67.21-3.34.4-5,.56-5,.48-25.33,1.12-25.32-2,0-2.95,16.46-7.86,21.78-9.93l.38-.14h0l.36-.15c7.93-3.1,15.7-6.59,23.55-9.84,6.05-2.5,13-4.94,17,1.4q.33.54.63,1.14a18.89,18.89,0,0,1,1.32,3.37C245.23,84,241.76,86.56,234.72,88.61Z"/>
    <path class="n" d="M186.14,94.47a.86.86,0,0,1-.74-1l0-.37a5.52,5.52,0,0,0,0-2.06.86.86,0,0,1,.73-1,.84.84,0,0,1,1,.72,7.31,7.31,0,0,1,0,2.55l-.05.35a.86.86,0,0,1-1,.74Z"/>
    <path class="n" d="M240.19,85.26l-.16,0a.86.86,0,0,1-.54-1.09c.31-.93.13-4.5-1.32-7.71a.86.86,0,1,1,1.56-.71c1.49,3.28,1.93,7.36,1.38,9A.85.85,0,0,1,240.19,85.26Z"/>
    <path class="n" d="M201.66,86.07a.84.84,0,0,1-.55-.31,3,3,0,0,1-.54-3.14.86.86,0,0,1,1.53.77c-.26.51.33,1.27.33,1.28a.86.86,0,0,1-.77,1.4Z"/>
    <path class="n" d="M222.16,85.69a.85.85,0,0,1-.74-.81c-.08-1.39-1.57-4.46-2.21-5.78a.86.86,0,0,1,1.55-.75c1.18,2.44,2.29,4.91,2.37,6.44a.86.86,0,0,1-.81.91Z"/>
    <path class="n" d="M210.87,93.6l-1.87.24a1,1,0,0,1,.08-.47,8.21,8.21,0,0,0,1-5,.86.86,0,0,1,.75-.95.87.87,0,0,1,1,.75A9.58,9.58,0,0,1,210.87,93.6Z"/>
    </g>
</svg>
